<?xml version="1.0" standalone="no"?><!DOCTYPE svg PUBLIC "-//W3C//DTD SVG 1.1//EN" "http://www.w3.org/Graphics/SVG/1.1/DTD/svg11.dtd"><svg t="1744883316746" class="icon" viewBox="0 0 1024 1024" version="1.1" xmlns="http://www.w3.org/2000/svg" p-id="52429" xmlns:xlink="http://www.w3.org/1999/xlink" width="200" height="200"><path d="M24.421714 461.148845c0 0 76.936253 52.627614 181.191712 26.328645 104.276948-26.328645 166.340469-106.48422 175.438685-110.534466 9.109472-4.040013 17.893532 13.359262 20.944008 19.418258 3.028986 6.069229 13.527085 22.0062 43.138496 44.201711 44.821835 33.619702-86.182848 158.344355-79.629595 181.822069 9.225105 33.104979 10.350742 95.441723 1.378393 145.302317-30.042223 31.819706-19.629059 55.69958-21.206998 60.106959-6.269797 17.545608 18.577101 18.429745 41.781592-22.953781 14.284331-25.476231 5.070482-113.480564 20.10285-169.759335 17.156752-64.228837 109.084441-96.691179 141.450592-129.069611 21.208021-21.216207 32.378431-50.828642 51.27071-58.338686 17.673521 15.904225 90.066295 11.623735 96.272647 20.554128 9.108448 13.169951 10.118452 66.817802-11.129478 82.006735-21.248953 15.168468-13.168927 14.169721-9.110495 15.168468 4.040013 1.031493-1.030469 17.209964 22.258956-2.01796 23.290449-19.22997 38.458917-56.69935 47.588855-79.967286 9.111518-23.278169 33.167401-21.816888 56.667627-36.649711 33.585933-21.227464 57.160861-79.682807 78.967516-79.755462 2.945075-0.010233 20.249183 9.110495 41.508369 5.059226 21.249977-4.050246 25.299199-14.168698 47.567365-10.129708 7.269567 1.325182 7.195889 1.914606 13.991666 3.965312 14.031575 4.207835 43.99091-18.503423 30.30419-27.39186-10.781554-6.995321-13.390985-9.330506-30.001291-18.934235-5.941316-3.439332-22.109554-11.129478-25.065885-22.942525-2.628874-12.222369-33.682124-26.928303-48.638767-28.927843-15.190981-2.020006-15.234983-0.463558-21.292955 2.566452-6.078439 3.050476-74.727958-45.675272-86.045725-40.488133-11.340279 5.186116 10.129708 51.638077 44.536332 53.658084 34.409694 2.020006 22.279423 2.020006 22.279423 2.020006s-48.850591 38.027082-75.181283 41.067324c-26.328645 3.049452-54.813397-28.287253-77.789691-47.736211-20.027126-16.96744-88.402399-97.238648-186.408527-96.018867-110.168122 1.37737-162.889881 89.854471-178.805362 109.293195-27.212782 33.240055-118.456902 152.043858-176.805822 166.202323-61.378929 14.875802-111.028723 3.89368-143.428643-12.307304C0.121262 429.769161-6.946714 425.729148 24.421714 461.148845z" fill="#000000" p-id="52430"></path></svg>