<?xml version="1.0" standalone="no"?><!DOCTYPE svg PUBLIC "-//W3C//DTD SVG 1.1//EN" "http://www.w3.org/Graphics/SVG/1.1/DTD/svg11.dtd"><svg t="1744882261818" class="icon" viewBox="0 0 1024 1024" version="1.1" xmlns="http://www.w3.org/2000/svg" p-id="4620" xmlns:xlink="http://www.w3.org/1999/xlink" width="200" height="200"><path d="M845.8 372.2c-69-54.7-155.2-79.3-242.5-69.3-31.4 3.6-61.6 11.7-90 23.6-1.3 0.3-2.4 0.9-3.7 1.4-49.1 21.3-92.6 54.4-126.8 97.5-30.7 38.6-51.6 83.6-62.6 131.2-42.7-49.3-64.2-112.1-60.4-177.4 3.9-66.4 33.4-127.4 83.1-171.6 49.7-44.2 113.5-66.5 180.1-62.6 77.7 4.5 147.5 44.1 191.4 108.5 12.5 18.3 37.5 23.1 55.9 10.6 18.3-12.5 23.1-37.5 10.6-55.9-58.1-85.1-150.3-137.4-253.1-143.4-88-5.1-172.5 24.3-238.2 82.8-65.8 58.5-104.8 139.1-109.9 227s24.3 172.5 82.8 238.2c58.5 65.7 139.1 104.8 227 109.9 6.4 0.4 12.9 0.5 19.3 0.5 37.1 0 73.6-6.7 108.3-18.8-19.6 53.5-57.5 100.7-110.8 130.9-119.5 67.7-271.8 25.5-339.5-94.1-38.4-67.8-43-147.8-12.7-219.7 8.6-20.5-1-44-21.4-52.7-20.5-8.6-44 1-52.7 21.4-40.1 95-33.9 200.9 16.8 290.5 43.4 76.6 113.9 131.7 198.8 155.2 29.2 8.1 59 12.1 88.5 12.1 56.1 0 111.6-14.5 161.8-42.9C704 815.6 759.8 614.1 670.3 456c-15.4-27.2-34.5-51.8-56.6-73.4 63-7 128.7 9.9 182.2 52.3 107.6 85.4 125.6 242.4 40.2 350-47.7 60-118.6 94.3-195.2 94.3h-4.2c-21.9 0-39.9 17.6-40.2 39.6-0.3 22.2 17.4 40.5 39.6 40.8h4.8c101.3 0 195.1-45.3 258.2-124.7 112.9-142.1 89-349.8-53.3-462.7zM632.3 611.5c-1.9 0.7-4 0.8-5.9 1.8-40.5 21.8-86.2 31.9-132.4 29.2-37.2-2.2-72.6-12.7-104.4-30 1.7-3.8 3.4-7.6 3.9-12 5.4-45.6 23.5-88.9 52.2-125.1 21.4-26.9 47.2-48.2 75.6-63.7 32.3 21.5 59.5 50 78.8 84.1 20.9 36.6 31.2 76.3 32.2 115.7z" p-id="4621" fill="#000000"></path></svg>