<?xml version="1.0" standalone="no"?><!DOCTYPE svg PUBLIC "-//W3C//DTD SVG 1.1//EN" "http://www.w3.org/Graphics/SVG/1.1/DTD/svg11.dtd"><svg t="1744883333548" class="icon" viewBox="0 0 1024 1024" version="1.1" xmlns="http://www.w3.org/2000/svg" p-id="53597" xmlns:xlink="http://www.w3.org/1999/xlink" width="200" height="200"><path d="M511.983 24.128l-78.9 147.159c-8.954 15.994-24.995 14.509-41.035 5.577l-57.12-29.58 42.572 226.031c8.954 41.295-19.77 41.295-33.948 23.439l-99.686-111.598-16.183 56.675c-1.868 7.443-10.073 15.257-22.384 13.396l-126.055-26.503 33.109 120.372c7.087 26.783 12.617 37.873-7.155 44.939l-44.929 21.116 216.995 176.259c8.59 6.666 12.929 18.658 9.872 29.518l-18.992 62.326c74.716-8.613 141.66-21.571 216.413-29.55 6.601-0.704 17.646 10.187 17.601 17.835l-9.9 228.335h36.331l-5.718-227.846c-0.045-7.648 9.973-19.027 16.573-18.322 74.752 7.98 141.699 20.938 216.416 29.55l-18.994-62.326c-3.054-10.86 1.282-22.853 9.874-29.516l216.993-176.261-44.929-21.116c-19.773-7.066-14.243-18.156-7.155-44.939l33.107-120.372-126.055 26.503c-12.309 1.861-20.513-5.954-22.384-13.396l-16.181-56.675-99.689 111.599c-14.176 17.855-42.901 17.855-33.948-23.44l42.572-226.031-57.118 29.58c-16.041 8.933-32.082 10.416-41.035-5.577z" fill="#000000" p-id="53598"></path></svg>