<?xml version="1.0" standalone="no"?><!DOCTYPE svg PUBLIC "-//W3C//DTD SVG 1.1//EN" "http://www.w3.org/Graphics/SVG/1.1/DTD/svg11.dtd"><svg t="1744882605182" class="icon" viewBox="0 0 1024 1024" version="1.1" xmlns="http://www.w3.org/2000/svg" p-id="22797" xmlns:xlink="http://www.w3.org/1999/xlink" width="200" height="200"><path d="M829.895 499.694c-39.981 48.748-132.875 39.737-166.915 2.314-51.705-56.825-133.5-49.219-166.404 9.326 9.78-31.419 33.065-61.292 64.763-82.074 42.438-27.844 94.945-36.724 143.944-24.373l1.645-6.644c-50.831-12.752-105.257-3.526-149.313 25.287-30.887 20.274-53.456 47.822-64.836 77.85 44.42-271.895 404.006-259.916 466.589-11.53-42.656-42.216-93.73-33.687-129.473 9.844z m-54.477-108.447l-26.997 10.547-21.164-19.533 1.784 28.734-25.27 14.097 28.023 7.181 5.642 28.385 15.522-24.349 28.722 3.256-18.384-22.196 12.122-26.122zM487.066 521.03a128.23 128.23 0 0 1 5.713-19.65c-1.14 6.98-2.23 14.007-2.943 21.363-0.951-0.5-1.832-1.182-2.77-1.713z m-10.213-6.317c3.307 2.342 6.75 4.354 10.213 6.317-0.185 0.896-0.444 1.781-0.608 2.68-3.4-2.895-6.704-5.843-9.605-8.997z m-57.97-86.556c-13.444-48.803-5.695-101.292 21.19-143.88l-5.801-3.683c-27.887 44.282-35.932 98.732-21.95 149.392 9.919 35.925 29.552 66.112 55.14 86.175C220.205 390.455 342.939 52.145 599.728 69.67c-53.424 27.414-61.118 78.424-30.64 125.772 34.15 52.946-3.157 138.15-49.322 158.891-70.071 31.438-88.235 111.078-42.912 160.378-26.797-18.978-47.98-50.18-57.972-86.555z m34.394-164.541l5.587 28.304 15.604-24.321 28.697 3.337-18.385-22.223 12.093-26.095-26.886 10.518-21.22-19.532 1.756 28.733-25.216 14.069 27.97 7.21z m30.42 263.27c-5.612-3.186-11.075-6.68-16.235-10.725 5.961 3.03 12.185 5.912 18.557 8.703-0.732 0.708-1.567 1.332-2.322 2.022z m-9.002 7.54c3.177-2.364 6.132-4.914 9.002-7.54 0.792 0.45 1.49 1.085 2.29 1.512-3.712 2.306-7.487 4.275-11.292 6.028z m-100.87 28.41c-50.75-2.342-98.467-25.883-130.807-64.514l-5.29 4.331c33.65 40.167 83.078 64.594 135.775 67.043 36.887 1.697 71.367-7.348 98.277-24.92C275.483 738.602-8.296 518.274 87.602 280.701c9.611 59.106 55.936 82.242 110.508 67.876 61.092-15.954 130.902 45.736 136.412 95.911 8.339 76.303 79.058 118.098 140.173 89.938-26.453 19.685-62.907 30.187-100.87 28.409zM249.876 434.48l-26.917 10.493-21.23-19.507 1.738 28.734-25.213 14.071 27.981 7.182 5.655 28.3 15.564-24.264 28.655 3.363-18.382-22.194 12.149-26.178z m238.204 97.514c-5.08 4.613-10.444 8.958-16.299 12.781 5.067-5.002 10.117-10.1 15.061-15.658 0.457 0.928 0.802 1.932 1.238 2.877z m4.325 10.552c-1.25-3.636-2.749-7.115-4.325-10.552 0.664-0.603 1.485-1.055 2.134-1.674 1.019 4.117 1.694 8.189 2.19 12.226z m-3.954 104.66c-17.925 47.43-55.125 85.283-101.99 104.06l2.539 6.322c48.645-19.477 87.221-58.837 105.823-107.99 13.07-34.41 15.092-69.913 6.594-100.848 124.33 245.987-173.62 446.827-370.716 282.527 59.365 9.093 95.727-27.656 98.953-83.776 3.591-62.849 84.05-109.926 133.672-99.57 75.443 15.65 137.27-38.589 129.078-105.385 10.712 31.177 9.48 69.154-3.953 104.66z m-112.734 86.869l-26.943 10.494-21.219-19.533 1.756 28.759-25.213 14.043 27.995 7.21 5.669 28.302 15.495-24.294 28.777 3.392-18.439-22.168 12.122-26.205z m118.529-204.651c2.833 6.216 5.327 12.618 7.17 19.326-3.198-6.327-6.484-12.661-10.244-19.043 1.01-0.146 2.055-0.164 3.074-0.283z m11.6-0.853c-3.922 0.063-7.772 0.408-11.6 0.853-0.381-0.833-0.561-1.767-0.961-2.59 4.317 0.314 8.487 0.936 12.56 1.737z m166.23 164.88l6.86-0.43c-3.512-52.138-29.156-100.888-70.3-133.655-28.876-23.085-62.154-35.971-94.353-37.439C787.53 479.972 887.233 824.49 669.46 960.52c27.077-53.43 3.265-99.273-49.377-119.64-58.85-22.759-78.935-113.612-53.776-157.516 38.278-66.532 5.643-141.764-60.46-154.793 33.01-0.514 68.802 12.363 98.527 36.068 39.656 31.636 64.302 78.61 67.703 128.813z m-15.17 54.908l5.587 28.249 15.578-24.265 28.725 3.36-18.386-22.222 12.067-26.15-26.887 10.52-21.246-19.505 1.755 28.761-25.213 14.07 28.02 7.182zM493.762 522.631c6.759-0.756 13.605-1.02 20.521-0.704-6.99 1.074-14.016 2.226-21.23 3.81 0.182-1.038 0.497-2.068 0.709-3.106z m-3.583 0.315c0.259-0.037 0.523-0.038 0.782-0.073-0.06 0.147-0.141 0.27-0.2 0.418-0.198-0.101-0.39-0.225-0.582-0.345z m-0.815 3.475l-0.536-3.349c0.323-0.049 0.655-0.044 0.978-0.09-0.127 1.163-0.334 2.257-0.436 3.442l-0.006-0.003z m-0.013-0.003l0.014 0.003 0.004 0.015c-0.009-0.006-0.013-0.011-0.018-0.018z m-0.114-0.105c0.042 0.033 0.074 0.072 0.114 0.106h-0.012l-0.102-0.106z m0.111 0.113l-0.025-0.012 0.015 0.003 0.01 0.009z m0.02 0.01l-0.008 0.004-0.012-0.014 0.02 0.01z m-0.023 0.025l-0.145 0.074c0.053-0.036 0.108-0.06 0.161-0.095h0.001c-0.006 0.008-0.01 0.014-0.017 0.021z m0.014-0.007l-1.555 3.021c-0.287-0.147-0.549-0.345-0.834-0.493 0.782-0.882 1.594-1.63 2.375-2.52l0.014-0.008z m0.01-0.006l-0.01 0.006 0.006-0.01 0.005 0.004z m0 0.002z m0.732 3.358c-0.062 0.008-0.129 0.007-0.19 0.017l-0.541-3.375 0.003 0.001c0.323 1.128 0.484 2.237 0.728 3.357z m-0.73-3.36l0.003-0.001 0.01 0.015-0.011-0.01-0.002-0.004z m-0.001-0.012l0.021 0.003-0.017 0.008-0.004-0.01v-0.001z m0.23 0.023c-0.07-0.004-0.137-0.018-0.21-0.021l0.018-0.01 0.193 0.031z m-0.193-0.03h0.004-0.004z m-0.032-0.007l0.032 0.007-0.037 0.007 0.005-0.014z m-0.005 0.014h-0.001z m-0.002 0z m0.003 0.012h-0.001l-0.001-0.01v-0.001l0.002 0.011z m-0.007-0.004l-0.003-0.003 0.007-0.004-0.004 0.007z m0.004-0.007v-0.001z m0-0.001z m0.003-0.014h0.003a0.035 0.035 0 0 1-0.006 0.013c0.002-0.003 0.002-0.008 0.003-0.013z m1.39-3.13c0.06 0.029 0.115 0.07 0.174 0.103l-1.56 3.027h-0.001c0.404-1.098 0.953-2.06 1.386-3.13z m1.688 1.61c0.143 0.282 0.237 0.592 0.378 0.877-1.156 0.256-2.255 0.38-3.416 0.65l3.038-1.527z m0.604 0.835c-0.021 0.123-0.063 0.245-0.084 0.37-0.045-0.111-0.09-0.223-0.142-0.33 0.077-0.016 0.149-0.023 0.226-0.04z m0.23 1.097c-0.158-0.011-0.311-0.033-0.47-0.048 0.038-0.227 0.118-0.453 0.156-0.68 0.103 0.245 0.2 0.49 0.315 0.728z m-0.512 0.139l-3.17-0.513c1.096 0.057 2.14 0.221 3.212 0.327-0.01 0.061-0.033 0.124-0.042 0.186z m-0.973 1.965c-0.222 0.219-0.485 0.4-0.708 0.618-0.612-1.035-1.08-2.057-1.707-3.094l2.415 2.476z m-0.626 0.77c-0.096 0.015-0.193 0.013-0.287 0.027 0.068-0.06 0.14-0.116 0.205-0.18 0.03 0.052 0.05 0.102 0.082 0.153z m-0.96 0.612c-0.041-0.17-0.074-0.342-0.11-0.513 0.256-0.041 0.525-0.036 0.782-0.072-0.223 0.195-0.456 0.382-0.671 0.585z m-3.371-1.204c-0.045-0.092-0.078-0.193-0.123-0.285 0.084 0.052 0.166 0.105 0.252 0.15-0.042 0.048-0.086 0.087-0.129 0.135z m-0.853-0.716c0.144-0.09 0.291-0.168 0.437-0.253 0.11 0.22 0.185 0.465 0.293 0.685-0.243-0.146-0.482-0.3-0.73-0.432z m0.359-0.432l2.853-1.434c-0.915 0.596-1.851 1.071-2.775 1.612-0.03-0.057-0.049-0.121-0.078-0.178z m-0.379-2.097c0.051-0.312 0.159-0.62 0.212-0.931 1.068 0.479 2.049 1.01 3.143 1.474l-3.355-0.543z m0.05-1.006c0.07-0.068 0.148-0.13 0.222-0.193-0.015 0.09-0.045 0.178-0.06 0.269-0.055-0.025-0.106-0.052-0.162-0.076z m0.44-1.155c0.152 0.129 0.275 0.27 0.427 0.4-0.203 0.197-0.429 0.376-0.645 0.56 0.056-0.322 0.159-0.638 0.218-0.96z m0.536 0.304l2.243 2.298c-0.875-0.686-1.517-1.496-2.352-2.203 0.034-0.033 0.075-0.062 0.11-0.095z m2.842-1.271c0.118 0.06 0.23 0.133 0.344 0.203-0.123 0.018-0.25 0.018-0.373 0.036 0.008-0.083 0.022-0.158 0.03-0.24z m6.74-11.41c-1.166 3.75-2.044 7.518-2.814 11.298-0.93 0.105-1.875 0.115-2.801 0.242 1.656-4.057 3.559-7.879 5.616-11.54z" p-id="22798" fill="#000000"></path></svg>