<?xml version="1.0" standalone="no"?><!DOCTYPE svg PUBLIC "-//W3C//DTD SVG 1.1//EN" "http://www.w3.org/Graphics/SVG/1.1/DTD/svg11.dtd"><svg t="1744884746146" class="icon" viewBox="0 0 1024 1024" version="1.1" xmlns="http://www.w3.org/2000/svg" p-id="2779" xmlns:xlink="http://www.w3.org/1999/xlink" width="200" height="200"><path d="M708.117167 963.155882c-43.687558-9.342992-87.998738-34.212283-122.736375-68.881888-23.920629-23.875275-40.31244-47.448188-58.518424-84.154959-14.622992-29.480314-17.884724-34.132913-22.004409-31.415432-1.145197 0.752126-7.105512 11.788346-13.247244 24.521574-13.213228 27.390236-34.333228 59.474644-51.722833 78.576376-32.239369 35.402834-80.057951 64.94362-123.265509 76.138581-29.03055 7.52126-60.895747 8.209134-63.522518 1.368189-0.680315-1.780157-2.47937-10.31811-3.991181-18.980787-4.414488-25.2737-13.523149-30.504566-36.990235-21.256063-15.545196 6.130394-17.506771 5.563464-23.111811-6.678425-9.717165-21.229606-13.341732-40.066771-13.530708-70.321888-0.196535-32.46992 3.114331-52.403148 13.859527-83.482202 14.891338-43.063936 35.213857-73.965353 74.399998-113.132596 16.686614-16.679055 26.39244-27.858897 25.991811-29.941417-0.676535-3.503622-3.43559-4.195275-33.607558-8.409448-61.855747-8.643779-117.993068-34.892598-159.167241-74.422675-20.999055-20.16-34.045983-37.209448-45.800313-59.841259-8.749606-16.856692-15.972283-38.63055-13.916221-41.956534 0.566929-0.922205 7.324724-4.977638 15.012284-9.017953 15.269291-8.023937 23.871495-16.55433 23.871495-23.667401 0-4.527874-6.134173-14.883779-15.265511-25.780157-2.604094-3.110551-4.735748-6.859842-4.735748-8.333858 0-4.743307 23.11937-23.773228 39.291967-32.348975 54.587715-28.932283 128.005036-33.599999 193.708342-12.306142 19.75559 6.40252 52.815117 21.59622 70.930392 32.598425 12.616063 7.664882 17.563464 8.692913 19.351181 4.021417 0.64252-1.662992-0.831496-13.137637-3.269292-25.500472-6.107716-30.977007-7.604409-77.710864-3.348661-104.530391 8.466142-53.378266 30.678424-101.480312 62.207242-134.740154 13.462677-14.203464 33.917479-30.205984 38.604094-30.205984 1.670551 0 9.240945 5.850709 16.818897 13.001575 11.625826 10.96063 14.891338 12.997795 20.87433 12.997795 10.083779 0 12.820157-2.014488 22.866142-16.834016 4.913386-7.241575 10.333228-13.167874 12.041574-13.167873 1.708346 0 9.815433 4.410709 18.017008 9.796535 44.492597 29.238424 79.679998 88.985195 91.139525 154.756532 4.694173 26.948031 2.834646 82.148029-3.821102 113.450076-6.417638 30.160629-4.289764 33.422361 14.331968 21.966613 14.691023-9.04063 49.164093-24.755905 67.256691-30.663306 65.098581-21.252283 135.522516-18.043464 189.996846 8.647559 21.165354 10.371023 38.751495 23.051338 38.898896 28.044093 0.049134 1.651654-3.057638 9.252283-6.901417 16.890709-8.753386 17.374488-9.505512 29.374487-2.150551 34.197164 2.664567 1.746142 11.44063 5.20063 19.502362 7.68l14.653228 4.505197-0.464882 9.161574c-1.375748 27.155905-25.258582 69.101101-57.252282 100.569447-48.536692 47.735432-102.149289 71.032439-185.283775 80.515273-19.642204 2.24126-18.87874 4.603464 11.493543 35.485984 47.811022 48.604723 73.878423 97.489131 83.633384 156.820153 5.831811 35.474645 1.765039 80.477478-9.509291 105.218265l-2.47937 5.44252-17.068346-1.511811c-34.828346-3.068976-36.763464-1.693228-37.749921 26.834645l-0.680315 19.698897-9.097322 1.247244c-15.658582 2.146772-36.880629 1.107402-54.538582-2.668346z m-128.337635-161.272437c3.711496-2.596535 4.437165-4.72063 3.945827-11.497323-0.521575-7.135748-1.511811-8.738268-7.011024-11.312125l-6.406299-3.000945-27.235275-109.693226c-14.978267-60.332597-26.910236-110.018265-26.513385-110.415115 0.39685-0.39685 29.480314 20.420787 64.637479 46.261416 35.157164 25.840629 77.064565 56.594644 93.123777 68.345195 22.246299 16.270866 28.977637 22.208503 28.267086 24.925984-0.514016 1.965354 0.540472 5.820472 2.343307 8.571968 2.573858 3.930709 4.96252 5.004094 11.11937 5.004094 12.434645 0 18.07748-11.387716 10.79433-21.785196-2.849764-4.066772-4.471181-4.539212-12.453543-3.639685l-9.184251 1.035591-91.729132-67.305825-91.729132-67.305826 20.685354-1.247244c11.376378-0.687874 62.759054-1.885984 114.187084-2.660787 82.389919-1.239685 93.637793-1.050709 94.658265 1.610079 1.799055 4.686614 12.374173 7.68 17.537008 4.962519 5.763779-3.031181 7.234016-5.563464 7.271811-12.510236 0.037795-7.721575-5.170394-13.152756-12.623622-13.152755-6.262677 0-13.345511 4.811338-13.345511 9.070866 0 1.889764-22.95307 2.747716-99.499841 3.722834-54.727558 0.702992-106.250076 1.776378-114.500784 2.381103-13.405984 0.997795-14.573858 0.808819-10.998425-1.76126 2.199685-1.587402 43.596849-30.202204 91.997478-63.598109 81.864565-56.488818 88.550549-60.691652 95.879053-60.283463 11.512441 0.631181 17.121259-3.779527 17.121259-13.466456 0-18.255118-22.801889-19.268031-25.761259-1.145197-1.213228 7.449449-3.031181 8.828976-93.985509 71.42173-51.012282 35.104251-93.040628 63.533857-93.399683 63.174802-0.359055-0.355276 12.049134-49.7537 27.571653-109.768816 27.707716-107.119367 28.327558-109.156533 33.807873-111.227714 7.033701-2.653228 9.569764-11.11937 5.510551-18.383622-4.085669-7.313386-17.91874-8.417008-22.55622-1.799055-4.32 6.168189-4.006299 12.839055 0.831496 17.67685l4.013858 4.017638-27.250393 105.482832c-14.993385 58.015747-27.839999 106.129131-28.55433 106.919052-0.714331 0.789921-13.322834-46.714959-28.017637-105.562202-24.87307-99.613226-26.494488-107.244092-23.463307-110.592753 7.865197-8.692913 0.536693-23.066456-11.168503-21.898582-14.683464 1.466457-17.627716 19.491023-4.149921 25.439999l6.391181 2.823307 26.320629 106.77921c14.47559 58.726298 25.927558 107.172281 25.447558 107.652281-0.48 0.48-41.521889-27.239054-91.207556-61.602518-74.551179-51.560314-90.334486-63.276849-90.357164-67.063935-0.030236-5.578583-8.40189-14.411338-13.662991-14.411339-2.101417 0-6.190866 1.867087-9.089764 4.146142-10.737638 8.447244-3.719055 25.587401 9.426142 23.017322a265.285033 265.285033 0 0 1 8.390551-1.530708c1.145197-0.16252 42.984566 27.976062 92.972596 62.536061l90.890076 62.830865-15.976062 1.315275c-8.783622 0.725669-58.998424 2.864882-111.575431 4.754646l-95.603147 3.43559-4.527874-4.251968c-9.078425-8.530393-23.266771-3.409134-23.266771 8.401889 0 7.914331 5.151496 13.345511 12.653858 13.345512 6.164409 0 13.345511-4.79622 13.345511-8.915905 0-1.647874 27.703936-3.261732 98.502045-5.733543 54.171967-1.889764 105.02173-3.972283 112.996533-4.629922 7.974803-0.653858 14.47559-0.408189 14.441574 0.544252-0.034016 0.95622-40.07433 32.333857-88.985194 69.732282-82.098896 62.777951-89.461415 67.955904-95.886612 67.35118-8.00126-0.744567-17.068346 6.500787-17.068346 13.651653 0 5.230866 8.541732 13.99937 13.640314 13.999369 6.757795 0 14.071181-7.502362 14.740158-15.118109 0.593386-6.704882 4.497638-9.99685 87.620785-73.734802 47.848818-36.691653 87.257951-66.478109 87.571651-66.187085 0.31748 0.287244-15.926929 47.984881-36.094487 105.993069-35.482204 102.054801-36.865511 105.550864-42.772912 108.034013-14.55874 6.122834-9.887244 25.012913 6.179527 25.012912 11.43685 0 16.818897-11.818582 9.894803-21.709605-3.084094-4.39937-1.640315-9.157795 33.497952-110.449132 25.11118-72.377951 37.198109-104.742045 38.2337-102.345824 0.831496 1.927559 13.126299 50.717479 27.322204 108.419525 23.074015 93.781415 25.51181 105.34299 22.990865 108.944879-9.501732 13.568504 5.404724 29.359369 18.837165 19.955905z" p-id="2780" fill="#000000"></path></svg>