<?xml version="1.0" standalone="no"?><!DOCTYPE svg PUBLIC "-//W3C//DTD SVG 1.1//EN" "http://www.w3.org/Graphics/SVG/1.1/DTD/svg11.dtd"><svg t="1744882637851" class="icon" viewBox="0 0 1024 1024" version="1.1" xmlns="http://www.w3.org/2000/svg" p-id="24876" xmlns:xlink="http://www.w3.org/1999/xlink" width="200" height="200"><path d="M556.024679 568.954153c7.628748 1.438769 15.228843 3.099594 22.911826 4.136204 1.610684 0.216941 3.530406-1.862417 5.307889-2.883677-0.988514-1.466398-1.641383-3.553942-3.0208-4.299933-8.838296-4.777817-18.294668-7.934716-28.16548-9.827833-0.6191-0.118704-1.656733-0.01842-1.798972-0.335644-0.723477-1.602498-2.175549-3.822049-1.608637-4.88424 1.77339-3.319605-3.577478-9.44 3.958148-10.336416 14.063297-1.671059 27.884071-1.290389 40.665165 5.764284 2.081405 1.149173 4.002151 3.14462 5.217838 5.207605 5.447059 9.247618 16.927531 10.283204 23.263843 1.907443 5.281283-6.980995 1.638313-16.117073-7.059789-16.737196-3.654226-0.260943-7.650237 0.738827-11.103896 2.127454-3.937682 1.583055-7.02295 1.162476-10.874675-0.476861-5.103228-2.172479-10.758018-3.038196-16.159028-4.529153-2.567475-0.709151-5.064342-2.104941-7.644097-2.242064-5.331425-0.284479-10.706853-0.104377-16.045441 0.208754-4.028757 0.236384-6.268774-1.569752-5.333472-5.420453 0.49528-2.036379 1.760087-4.191462 3.301186-5.618974 8.966209-8.306176 19.082614-15.050788 30.215162-20.009729 2.172479-0.968048 6.451946-0.099261 8.273431 1.556449 6.377244 5.79703 17.574261 3.311419 23.034623-1.348718 4.542456-3.876284 4.929266-11.362792 1.287319-16.695241-3.263323-4.77884-9.66922-6.081509-16.013719-3.463891-4.402263 1.816369-8.193613 3.998057-10.081613 8.834202-1.151219 2.948145-3.825119 3.777023-7.134491 4.574179-5.26491 1.266853-10.137895 4.256954-15.093766 6.686283-4.106528 2.012843-8.094352 4.269233-12.135388 6.417153-0.416486-0.274246-0.831948-0.549515-1.248434-0.823761 0.838088-2.213411 1.387603-4.593622 2.559289-6.614651 12.809747-22.094204 29.084409-41.392736 48.441269-57.94369 12.743232-10.896164 26.165939-21.004383 39.387056-31.333636 5.617951-4.38896 12.20702-5.622044 19.293415-6.241145 5.92085-0.517793 11.602246-3.337002 17.502629-4.608971 14.112416-3.040243 28.333302-5.41022 42.605354-0.983397 20.761859 6.440689 38.8314 18.134009 57.190537 29.327956 9.504468 5.794983 19.520589 10.758018 29.358655 15.995299 3.434216 1.828648 5.712095 4.111644 4.780887 8.343015-0.034792 0.156566-0.099261 0.324388-0.072655 0.472767 2.204202 12.141528-7.212262 16.773012-14.653745 22.674419-4.131087 3.276626-4.261047 5.567809 0.330528 8.309246 5.708002 3.40761 11.663644 6.459109 17.726733 9.190313 2.688225 1.210571 4.16588 2.556219 4.374634 5.510504 0.145309 2.059915 0.822738 4.076852 1.122567 6.132674 0.499373 3.423983 0.207731 6.440689-3.939729 7.562233-1.000793 0.270153-2.358721 1.043772-2.636037 1.886977-3.038196 9.240455-12.196787 12.383028-18.437931 18.326391-16.213263 15.440667-36.129872 25.848715-54.428633 38.47222-7.487531 5.164626-15.09479 8.731872-24.376177 8.316409-2.310625-0.103354-4.825912 0.623193-6.989181 1.561565-12.674671 5.500271-26.022677 3.853771-39.210024 3.946892-3.520173 0.024559-7.072069-0.276293-10.54517 0.12689-1.350764 0.156566-2.523473 1.846044-3.777023 2.837628 0.926092 1.110287 1.638313 2.594081 2.814092 3.270487 7.176446 4.126994 14.514575 7.971555 21.686928 12.105712 6.709819 3.867074 7.995091 11.17962 10.916631 17.520025 2.388397 5.183046 5.303796 10.174734 8.449439 14.94641 7.9296 12.027941 13.591553 25.032116 16.691147 39.036062 2.106987 9.519818 3.481288 19.212574 4.886287 28.871561 0.51677 3.555989 0.173962 7.235798 0.240477 10.859325 0.017396 0.950651-0.251733 2.133593 0.202615 2.813069 3.607154 5.386684 2.201132 11.455913 2.609431 17.289782 0.221034 3.151783 0.63445 6.319939 1.310855 9.404184 1.605567 7.317663-1.506307 11.996219-8.776897 11.542894-11.171434-0.695848-22.295795-2.130524-33.440623-3.241834-1.429559-0.14224-2.873444-0.382717-4.296863-0.308015-6.52767 0.339738-7.04444 0.88516-6.885827 7.369851 0.190335 7.80885 0.327458 15.622816 0.759293 23.419386 0.190335 3.429099-1.929955 3.576455-4.231371 3.761674-7.534604 0.607844-14.409175-1.568728-21.296025-4.464685-14.725376-6.191003-29.919427-11.330046-44.398186-18.031679-21.742187-10.063193-44.077891-19.454074-60.689221-37.829584-10.962679-12.127202-22.119787-24.164353-27.502377-40.099277-1.013073-2.998287-1.331321-6.227842-2.041496-9.334599-0.674359-2.948145-0.890276-6.170536-2.273786-8.755408-3.831258-7.163143-4.800329-14.829753-5.191232-22.716374-0.397043-7.996115-1.39579-15.992229-1.26276-23.974018 0.118704-7.142677 1.093914-14.322194 2.329045-21.37482 0.698918-3.992941 3.004427-6.957459 7.80271-7.955182 3.77293-0.784876 7.233752-3.200902 10.750855-5.047969 4.838192-2.539846 9.890254-0.300852 11.601222 4.931313 2.724041 8.331759 6.633071 16.393365 8.321526 24.910343 1.613754 8.141424 4.479011 16.905018-2.007727 24.832572-4.137227 5.057179-3.720741 15.847943 0.158612 20.881586 3.065825 3.978614 6.323009 3.961218 10.444886 0.533143 4.692882-3.90289 7.348362-8.795317 7.648191-14.754029 0.121773-2.423189-0.137123-5.945409-1.665942-7.17747-5.594415-4.507664-4.497431-10.844999-5.815449-16.600073-1.835811-8.022721-3.63069-16.122189-6.404873-23.843034-2.675946-7.446599-6.573719-14.453177-9.937326-21.653159-1.457188-3.118014-0.404206-5.284353 2.892887-4.957919 2.871397 0.284479 5.891174 1.1328 8.4126 2.518357 8.133238 4.473895 14.308891 11.229762 19.497053 18.745946 3.151783 4.567016 5.755074 9.619078 7.809873 14.770402 0.618077 1.550309-1.017166 4.485151-2.344395 6.236028-4.757351 6.279007-0.301875 11.30651 2.156106 16.371876 2.397606 4.940522 6.570649 7.888667 12.487406 6.960529 7.008624-1.099031 11.167341-9.56689 8.600889-17.97949-1.537006-5.036713-3.771907-9.617032-10.31288-9.750061-1.060145-0.021489-2.615571-1.676176-3.040243-2.89084-4.278443-12.245905-10.147104-23.469528-20.297278-31.918967-3.251044-2.706645-6.910387-4.922103-10.382465-7.361665C555.695175 569.380872 555.859927 569.168024 556.024679 568.954153zM605.984534 594.307587c5.746888 0.039909 10.366092-3.756557 10.320043-8.481162-0.053212-5.359055-3.236718-9.268084-7.641027-9.382695-5.857405-0.152473-11.82328 4.677533-11.82021 9.570983C596.845387 590.993099 600.456634 594.268702 605.984534 594.307587z" p-id="24877" fill="#000000"></path><path d="M532.922519 512.476861c2.413979-6.574742 5.333472-13.014408 7.131421-19.75288 3.234671-12.117992 3.521197-24.536836 2.574638-37.039591-0.243547-3.222391 0.568958-6.690376 1.611707-9.806343 1.726318-5.161556 0.497327-9.856485-1.517563-14.43885-1.468444-3.339048-8.91709-3.131317-12.17939 0.145309-5.435803 5.460362-4.584412 17.2335 1.366114 22.280446 1.27197 1.078565 2.281973 3.118014 2.407839 4.79112 1.039679 13.793144-0.397043 27.27418-4.589528 40.567951-2.51631 7.978718-7.195889 12.837376-15.995299 14.852266-0.348947-5.028527-0.706081-9.857509-1.017166-14.68956-0.756223-11.763928-1.475608-23.529903-2.264577-35.291784-0.061398-0.921999-0.421602-1.882883-0.859577-2.712785-2.581802-4.894474-4.14746-9.712199-2.322905-15.481599 1.64343-5.194302-3.224438-11.821233-8.745175-13.057387-4.00829-0.89744-8.646937 2.912329-10.135848 8.326643-2.310625 8.395204 0.083911 12.011568 8.665357 13.736862 1.418302 0.285502 3.412726 1.783623 3.672646 3.028986 1.00591 4.813632 1.471514 9.745968 2.038426 14.645558 0.659009 5.690606 1.449002 11.381212 1.74883 17.09433 0.313132 5.980201 0.248663 11.991102 0.066515 17.97949-0.069585 2.275833-0.924045 4.527107-1.699712 8.057513-2.0241-2.159176-3.64911-3.158946-4.13211-4.552689-1.177825-3.400446-1.830695-6.983041-2.683109-10.495028-0.074701-0.306992-0.028653-0.642636-0.085958-0.955768-0.821715-4.530177-4.682649-8.477069-7.697309-7.878434-2.997264 0.594541-5.045923 5.552459-4.351098 10.183943 0.467651 3.113921 0.724501 6.259564 1.075495 9.390881-0.520863 0.169869-1.041726 0.339738-1.563612 0.509606-1.136893-0.773619-2.628874-1.304715-3.354398-2.360767-5.390777-7.849782-10.616802-15.813151-15.918551-23.724331-3.452635-5.152347-7.16519-10.145058-10.348696-15.456017-2.581802-4.306072-4.584412-8.963139-6.779404-13.496385-3.263323-6.740518-6.329149-13.580297-9.751085-20.237927-2.178619-4.237511-5.442966-7.989975-7.15291-12.375865-2.260483-5.794983-4.273327-11.908214-4.969175-18.046005-1.258667-11.097756-2.140757-22.328541-1.919722-33.479509 0.224104-11.275811 1.043772-22.723537 3.416819-33.703613 1.382487-6.39464 5.867638-12.338003 9.753131-17.931395 13.054317-18.791995 26.447349-37.347606 39.770795-55.951313 1.192152-1.664919 2.548032-3.753487 4.2897-4.3951 9.963932-3.674693 14.332427-12.275581 18.802228-20.75572 3.412726-6.475482 8.709359-10.501168 15.424294-12.846586 3.377934-1.179872 8.107655 1.419326 10.339486 6.010901 1.737574 3.574409 2.749624 7.494695 4.257977 11.189853 0.558725 1.367137 1.6158 2.530636 2.444679 3.786233 1.350764-1.006933 3.010567-1.77646 3.998057-3.062755 4.381797-5.705955 8.766664-11.429307 12.756535-17.408485 2.333138-3.495614 4.377704-2.825348 6.314823-0.206708 1.970888 2.663666 3.338025 5.764284 5.1503 8.556886 13.280468 20.468171 26.64894 40.880059 39.894615 61.370743 4.222161 6.531763 9.080819 12.756535 9.064446 21.262256-0.005117 2.720971 1.436722 5.573949 2.672876 8.146541 6.15007 12.803607 7.855922 26.551726 9.458419 40.446177 1.25355 10.866489 0.759293 21.37175-2.426259 31.81152-0.49835 1.633197-0.36225 3.485381-0.37453 5.237281-0.01842 2.805906 0.261966 5.698792-3.929496 5.612834-0.505513-0.010233-1.105171 0.589424-1.524726 1.033539-7.140631 7.561209-14.470573 14.95869-21.326724 22.77061-7.351432 8.376785-13.447267 18.013259-21.537526 25.546839-12.066827 11.235902-16.947997 26.479071-25.103748 39.885406-3.079128 5.060249-6.823406 9.716292-10.264784 14.555507C534.022573 513.293459 533.472034 512.88516 532.922519 512.476861zM484.321614 461.516212c-0.020466-6.208399-4.953825-11.745509-10.643408-11.9471-5.02955-0.178055-11.513218 4.607948-11.522428 8.503675-0.01228 5.383614 8.205892 12.768815 14.130835 12.697183C482.201324 470.698339 484.344127 468.230124 484.321614 461.516212zM430.688089 351.529215c-4.551666 3.89675-5.511527 9.005095-2.192945 13.57518C429.164387 360.962052 429.833629 356.818685 430.688089 351.529215z" p-id="24878" fill="#000000"></path><path d="M460.398762 534.106484c-2.680039-0.765433-5.434779-1.335415-8.021697-2.338255-4.605901-1.785669-9.027607-2.192945-14.011108-1.00591-8.390088 1.998517-16.965393 3.278673-25.508977 4.553713-11.990079 1.788739-22.596647 6.758937-32.482809 13.505595-0.890276 0.607844-1.779529 1.534959-2.167363 2.512217-3.103688 7.829316-9.740852 11.976776-16.430204 16.137539-6.081509 3.78214-12.002358 7.829316-18.169825 11.461029-1.817392 1.070378-4.240581 1.612731-6.371104 1.573845-17.219173-0.317225-34.402531-2.041496-50.201355-9.099239-12.023848-5.371334-20.886703-15.140839-28.065196-26.223245-1.473561-2.27481-2.526543-5.062296-4.51585-6.724145-13.615089-11.380188-21.471011-26.933419-30.381961-41.670052-4.858658-8.035-8.646937-16.709567-13.225209-24.925692-2.084475-3.740184-5.045923-6.982018-7.345292-10.616802-1.089821-1.723248-1.808182-3.783163-2.25639-5.78782-0.844228-3.768837-0.188288-6.314823 4.64581-6.888897 12.500709-1.483794 24.963555-3.328815 37.395702-5.317099 6.076392-0.971118 6.338359-2.225691 3.41068-7.509021-2.556219-4.612041-4.486174-9.575076-7.086395-14.159488-2.091638-3.690042-4.567016-7.213285-7.242961-10.508331-3.044336-3.749394-3.416819-5.709025 0.596588-7.656377 12.078083-5.858428 24.209378-11.7056 36.716226-16.533558 5.491061-2.12029 11.93175-2.349511 17.952884-2.420119 19.663852-0.231267 39.343053-0.312108 58.995649 0.26299 5.693676 0.166799 11.458983 2.334161 16.942881 4.282536 11.238972 3.992941 22.26612 8.578376 33.464159 12.69002 9.338692 3.429099 15.567557 8.503675 16.990976 19.568684 0.917906 7.128351 5.091972 14.013155 8.581446 20.595061 6.281053 11.848862 12.854772 23.568788 19.893072 34.980699 3.317559 5.379521 7.995091 9.91993 11.70867 15.380292-2.216481-1.696642-4.234441-3.796466-6.689353-5.010107-6.560416-3.242857-13.246699-6.260587-20.024056-9.021467-1.915629-0.779759-4.749164 0.342808-6.399757-0.660032-2.741437-1.666966-4.970198-4.248767-7.229658-6.620791-7.175423-7.53051-13.19758-9.039887-18.210757-0.081864-0.778736 1.391696-1.39579 2.87242-2.13871 4.28663-4.811586 9.162684-3.723811 12.035104 5.999644 15.766079 0.298805 0.11461 0.60989 0.197498 0.909719 0.309038 10.261715 3.781116 14.037714 2.553149 19.400862-6.469342 19.278065 4.827959 34.610262 15.023158 43.61024 33.335223 5.53404-3.925403 6.15007-5.602601 3.269463-10.174734-2.756787-4.375657-6.030343-8.425903-9.075703-12.619412 0.326435-0.321318 0.653893-0.64366 0.980327-0.964978 4.085038 4.448312 8.6848 8.54256 12.07706 13.468756 2.314719 3.361561 2.89084 7.904017 4.366448 11.872399 0.346901 0.934279 1.272993 2.425236 1.785669 2.367931 1.118474-0.125867 2.373047-0.876973 3.158946-1.746784 1.678222-1.858324 3.092431-3.954055 5.134951-6.634094 1.842974 3.911076 4.066619 6.417153-1.045819 8.03193-0.949628 0.299829-0.829901 3.668553-1.403976 5.560646-0.607844 2.00261-1.013073 5.14416-2.298346 5.611811-1.940189 0.705058-4.869914 0.091074-6.844895-0.963954-6.019087-3.214205-11.761881-6.940063-17.649985-10.402931-3.986801-2.344395-7.866155-1.823532-12.562107 1.030469 6.392594 3.297093 12.213159 6.29845 18.032702 9.299807C461.040375 532.568455 460.72008 533.336958 460.398762 534.106484zM417.242869 516.02364c0.283456-7.219425-3.947915-9.610892-11.06808-10.512425-5.14416-0.650823-13.563924 6.257517-13.648858 10.44591-0.146333 7.293103 3.739161 12.473079 9.526981 12.69923C410.448116 528.98279 417.010579 523.525498 417.242869 516.02364z" p-id="24879" fill="#000000"></path><path d="M343.345836 756.324588c-13.116739 3.197832-24.64633 6.007831-36.81344 8.973372-0.233314-1.01205-1.136893-3.083222-1.119497-5.14723 0.104377-12.301164-1.006933-24.837688 0.98749-36.848233 3.312442-19.945261 5.359055-40.280402 13.33061-59.272965 8.091282-19.277042 18.726503-37.09792 30.143531-54.500265 4.735861-7.218402 9.624195-14.343683 14.678304-21.341051 1.348718-1.867534 3.348258-3.900843 5.430686-4.473895 4.881171-1.341554 7.879458-4.572132 10.766205-8.308223 8.595772-11.124362 19.297508-19.080567 33.480532-21.503756 4.937452-0.843204 9.92607-1.385557 14.882965-2.12029 13.779841-2.040473 27.576055-3.795443 41.552371-2.445702 3.298116 0.318248 9.277294 7.114025 8.653077 10.239202-0.178055 0.8913-2.116197 1.989307-3.28379 2.035356-7.065929 0.275269-14.168698-0.057305-21.201881 0.521886-2.937912 0.2415-5.718235 2.257413-8.595772 3.403516-2.368954 0.943488-4.819772 1.691525-7.15291 2.711761-2.566452 1.122567-5.060249 2.420119-7.541767 3.724835-0.686638 0.361227-1.14815 1.335415-1.833765 1.487887-8.397251 1.862417-12.656251 9.105379-18.570961 14.177907-4.092201 3.508917-5.492084 7.92346-3.369747 12.942777 2.264577 5.353938 6.986111 7.898901 12.374842 8.754385 7.556093 1.199315 10.488889-0.440022 13.775748-6.595208 3.012613-5.64251 2.625804-13.857613-1.186012-17.955954-2.699482-2.90312-2.505054-4.572132 1.089821-6.531763 12.375865-6.747681 25.420973-10.651594 39.585577-9.299807 4.618181 0.441045 9.111518 2.196015 14.855336 3.65218-1.911536 1.760087-2.578732 2.551102-3.40761 3.096525-1.198292 0.787946-3.291976 1.11745-3.656273 2.128477-3.125177 8.66638-12.635785 10.824533-17.629519 17.869996-5.941316 8.383948-9.650801 17.358343-12.527314 26.991748-0.914836 3.063779-2.703575 6.051833-4.728698 8.562003-4.657067 5.77554-5.26798 12.761652-1.378393 18.515702 2.02717 2.99931 4.630461 4.178159 8.136308 3.987824 6.528694-0.354064 14.071484-6.591115 15.271822-12.600993 0.789992-3.955078 0.273223-7.15905-3.474125-9.606799-1.133823-0.740874-1.335415-2.932796-1.921769-4.475941-0.358157-0.942465-0.366344-2.493797-0.989537-2.78237-4.724605-2.186805-2.693342-5.494131-1.484817-8.508791 4.520967-11.278881 12.83226-19.669992 21.391193-27.886117 4.909823-4.712325 10.145058-8.006348 17.448394-7.385201 3.836375 0.326435 4.941546 2.046612 4.27742 5.189186-1.713015 8.101515-3.989871 16.09149-5.487991 24.228821-1.329275 7.224542-2.700505 14.5903-2.65855 21.886473 0.076748 13.414521 0.9967 26.835182 1.971911 40.22412 0.272199 3.742231 1.912559 7.396457 3.022847 11.06194 2.604314 8.597819 1.236154 16.820084-4.058432 23.718191-8.354272 10.882861-17.231453 21.393239-26.347065 31.652907-7.225565 8.133238-15.071254 15.7231-22.771633 23.424502-6.191003 6.192026-13.355169 10.637268-21.928429 13.192464-6.310729 1.880837-12.111852 5.408173-18.280342 7.845689-5.317099 2.100848-10.782577 3.872191-16.282848 5.437849-2.342348 0.666172-5.033643 0.074701-7.399527 0.692778-4.474918 1.168616-8.488325 2.750647-12.275581 6.170536-7.632841 6.894014-18.86465 2.912329-21.549805-7.14984-1.350764-5.061272-1.563612-10.41521-2.562359-15.58393C345.911264 766.973112 344.522638 761.503541 343.345836 756.324588z" p-id="24880" fill="#000000"></path></svg>