<?xml version="1.0" standalone="no"?><!DOCTYPE svg PUBLIC "-//W3C//DTD SVG 1.1//EN" "http://www.w3.org/Graphics/SVG/1.1/DTD/svg11.dtd"><svg t="1744882871061" class="icon" viewBox="0 0 1024 1024" version="1.1" xmlns="http://www.w3.org/2000/svg" p-id="37933" xmlns:xlink="http://www.w3.org/1999/xlink" width="200" height="200"><path d="M501.48864 271.96928c7.02464 0 13.93664-4.33664 17.59744-11.008 3.69664-6.76864 3.40992-14.72-0.79872-21.2992-15.27808-23.85408 2.49856-50.49344 21.31456-78.69952 16.15872-24.22784 32.86016-49.28 27.56608-74.05056-3.05664-14.3872-12.95872-26.65472-30.208-37.51936-11.42272-7.15264-27.06944-0.57856-30.6688 11.91936-2.37056 8.22272 0.82944 16.28672 8.36608 21.02272 6.79936 4.2752 10.624 9.04192 11.67872 14.592 2.59072 13.568-11.008 32.2048-21.9648 47.17056-3.82464 5.23264-7.44448 10.20928-10.32192 14.75072-24.91392 39.43936-27.4432 73.55392-7.74656 104.30464 3.584 5.5808 9.12384 8.80128 15.18592 8.81664z m112 0c7.02464 0 13.952-4.33664 17.6128-11.008 3.69664-6.76864 3.40992-14.72-0.79872-21.2992-15.27808-23.85408 2.4832-50.49344 21.2992-78.69952 16.15872-24.22784 32.86016-49.28 27.56608-74.05056-3.05664-14.3872-12.95872-26.65472-30.208-37.51936-11.36128-7.15264-27.0848-0.57856-30.68928 11.93472-2.3552 8.22272 0.84992 16.27136 8.3712 21.00736 6.8096 4.2752 10.624 9.04192 11.6736 14.592 2.59584 13.568-11.008 32.2048-21.94944 47.18592-3.81952 5.23264-7.45472 10.20928-10.33216 14.75072-24.91392 39.43936-27.4432 73.55392-7.74656 104.30464 3.59936 5.57056 9.13408 8.78592 15.20128 8.80128z m-208 0c7.02464 0 13.93664-4.33664 17.59744-11.008 3.69664-6.76864 3.39456-14.72-0.79872-21.2992-15.27808-23.85408 2.49856-50.49344 21.31456-78.69952 16.15872-24.22784 32.86016-49.28 27.56608-74.05056-3.072-14.3872-12.95872-26.65472-30.22336-37.51936-11.36128-7.15264-27.07456-0.57856-30.6688 11.91936-2.37056 8.22272 0.82944 16.28672 8.36608 21.02272 6.79936 4.2752 10.624 9.04192 11.6736 14.592 2.59584 13.568-11.008 32.2048-21.9648 47.17056-3.82464 5.23264-7.43936 10.20928-10.3168 14.75072-24.91392 39.43936-27.4432 73.55392-7.74656 104.30464 3.59936 5.5808 9.1392 8.80128 15.20128 8.81664z m428.00128 176.60928c-0.0512-0.48128-0.16384-0.96256-0.22528-1.44384-34.22208 53.77536-168.20736 92.86656-333.2608 92.86656-165.05856 0-299.0592-39.0912-333.26592-92.86656-0.128 0.96256-0.384 1.90464-0.4352 2.8672-36.72064 8.02816-52.84864 24.96-51.84 53.85216 0.86528 24.448 32.08192 45.6192 72.7552 57.63584 25.51808 63.46752 72.76544 115.0208 133.61664 149.05344l-87.58784 204.288a23.99744 23.99744 0 1 0 44.11392 18.91328l86.912-202.73664c41.50272 16.0768 87.35744 24.99072 135.7312 24.99072 49.71008 0 96.7168-9.48736 139.11552-26.39872l87.52128 204.14464a24.0128 24.0128 0 0 0 44.12928-18.91328l-88.33536-206.01344c58.624-33.664 104.25344-83.8144 129.50016-145.18784 44.4672-11.52 79.744-33.7408 80.67584-59.75552 1.07008-30.7712-17.2544-47.95392-59.12064-55.296zM154.60864 508.3648c-0.68608-13.13792 1.34144-20.80256 13.0048-25.74336 1.6384 16.15872 4.80256 31.67744 8.8832 46.78144-13.13792-5.13536-21.42208-12.0832-21.888-21.0432z m697.856 0c-0.5632 10.63936-12.12928 18.3808-29.696 23.7056 4.6592-16.64 8.07936-33.83808 9.728-51.75808 17.77664 4.7872 20.76672 12.65664 19.968 28.05248z m-352.4608 15.63136c195.00544 0 325.99552-53.77536 325.99552-104.00256S694.99392 316.0064 499.99872 316.0064c-195.00544 0-326.00064 53.77536-326.00064 103.99744s130.9952 104.00256 326.00064 104.00256z m4.352-179.99872c140.29824 0 282.34752 24.7296 282.34752 71.99744S644.6592 488.00256 504.35072 488.00256C364.032 488.00256 222.0032 463.2576 222.0032 416S364.032 343.99744 504.35072 343.99744z m75.27424 18.49344c-16.43008-1.09056-33.72544-1.85856-51.95264-2.20672l-1.3568 111.4368a1116.6208 1116.6208 0 0 0 52.0192-2.1248l1.29024-107.10528zM302.41792 450.95936l1.11616-70.20544c-42.17344 10.81344-65.536 24.07936-65.536 35.24608 0 11.07456 22.9632 24.192 64.41984 34.95936z m369.2288-77.48608c-17.88928-3.2768-37.888-6.144-60.032-8.3712l-1.24416 101.90336c22.07744-2.176 42.04544-4.992 59.91936-8.23808l1.3568-85.2992zM399.6672 364.86144c-23.72608 2.32448-45.08672 5.34528-64 8.86784L334.336 458.01472c18.8928 3.56864 40.28928 6.64064 64.06144 8.99072l1.26464-102.144z m371.0464 51.13856c0-11.32544-23.94112-24.7808-67.1744-35.68128l-1.13664 71.66464c43.97056-10.9568 68.30592-24.56064 68.30592-35.98336z m-275.0464-55.88992c-22.62016 0.16384-43.95008 0.9472-63.98464 2.2272l-1.34144 107.264c20.0192 1.31072 41.344 2.0992 63.96928 2.28864l1.3568-111.77984z" fill="#000000" p-id="37934"></path></svg>