<?xml version="1.0" standalone="no"?><!DOCTYPE svg PUBLIC "-//W3C//DTD SVG 1.1//EN" "http://www.w3.org/Graphics/SVG/1.1/DTD/svg11.dtd"><svg t="1744882141791" class="icon" viewBox="0 0 1024 1024" version="1.1" xmlns="http://www.w3.org/2000/svg" p-id="1476" xmlns:xlink="http://www.w3.org/1999/xlink" width="200" height="200"><path d="M477.866667 91.022222L91.022222 244.622222c-8.533333 2.844444-8.533333 14.222222 0 17.066667l384 167.822222c25.6 11.377778 51.2 11.377778 76.8 0l384-170.666667c8.533333-2.844444 5.688889-14.222222 0-17.066666L546.133333 91.022222c-22.755556-8.533333-45.511111-8.533333-68.266666 0z" fill="#000000" p-id="1477"></path><path d="M512 472.177778c-17.066667 0-36.977778-2.844444-51.2-11.377778L76.8 292.977778c-17.066667-8.533333-25.6-22.755556-25.6-42.666667 0-17.066667 11.377778-34.133333 28.444444-39.822222L466.488889 56.888889c31.288889-11.377778 65.422222-11.377778 96.711111 0l386.844444 150.755555c17.066667 5.688889 28.444444 22.755556 28.444445 39.822223 0 17.066667-11.377778 34.133333-25.6 42.666666l-384 170.666667c-19.911111 8.533333-39.822222 11.377778-56.888889 11.377778zM162.133333 253.155556l324.266667 142.222222c14.222222 5.688889 31.288889 5.688889 48.355556 0l324.266666-145.066667-324.266666-125.155555c-14.222222-5.688889-28.444444-5.688889-42.666667 0L162.133333 253.155556zM512 736.711111c-17.066667 0-34.133333-2.844444-51.2-11.377778L71.111111 560.355556c-17.066667-8.533333-25.6-28.444444-19.911111-45.511112 8.533333-17.066667 28.444444-25.6 45.511111-19.911111L483.555556 657.066667c14.222222 5.688889 31.288889 5.688889 48.355555 0l389.688889-167.822223c17.066667-8.533333 39.822222 0 45.511111 19.911112s0 39.822222-19.911111 45.511111l-389.688889 167.822222c-11.377778 8.533333-28.444444 14.222222-45.511111 14.222222z" fill="#000000" p-id="1478"></path><path d="M509.155556 978.488889c-17.066667 0-34.133333-2.844444-51.2-11.377778L71.111111 802.133333c-17.066667-8.533333-25.6-28.444444-19.911111-45.511111 8.533333-17.066667 28.444444-25.6 45.511111-19.911111L483.555556 898.844444c14.222222 5.688889 31.288889 5.688889 48.355555 0l389.688889-167.822222c17.066667-8.533333 39.822222 0 45.511111 19.911111s0 39.822222-19.911111 45.511111l-384 170.666667c-17.066667 5.688889-34.133333 11.377778-54.044444 11.377778z" fill="#000000" p-id="1479"></path></svg>