<?xml version="1.0" standalone="no"?><!DOCTYPE svg PUBLIC "-//W3C//DTD SVG 1.1//EN" "http://www.w3.org/Graphics/SVG/1.1/DTD/svg11.dtd"><svg t="1744882690837" class="icon" viewBox="0 0 1024 1024" version="1.1" xmlns="http://www.w3.org/2000/svg" p-id="28616" xmlns:xlink="http://www.w3.org/1999/xlink" width="200" height="200"><path d="M754.346667 426.666667c-20.48-11.946667-51.2 3.413333-51.2 3.413333l-22.186667 8.533333s-3.413333-15.36-6.826667-42.666666c-5.12-27.306667-39.253333-75.093333-39.253333-75.093334s59.733333 5.12 68.266667-13.653333-3.413333-29.013333-3.413334-29.013333v-20.48l-11.946666 5.12-15.36 1.706666-3.413334-8.533333s-10.24 8.533333-20.48 8.533333-46.08-3.413333-52.906666-17.066666c-15.36-30.72-6.826667-37.546667 18.773333-49.493334 40.96-17.066667 73.386667 17.066667 73.386667 17.066667l3.413333 11.946667s6.826667-6.826667 15.36-6.826667c10.24-1.706667 15.36 1.706667 15.36 1.706667s6.826667-1.706667 13.653333-18.773334 3.413333-25.6 3.413334-34.133333 0-11.946667 3.413333-22.186667c3.413333-11.946667-5.12-23.893333-18.773333-32.426666-13.653333-6.826667-58.026667-10.24-58.026667-10.24s3.413333-6.826667-1.706667-13.653334c-5.12-8.533333-11.946667-13.653333-34.133333-23.893333-22.186667-10.24-23.893333-35.84-71.68-54.613333-49.493333-18.773333-146.773333 20.48-146.773333 20.48s-10.24-5.12-22.186667-5.12c-11.946667 1.706667-34.133333-3.413333-37.546667-1.706667-3.413333 1.706667 8.533333 30.72 8.533334 30.72s-15.36 10.24-29.013334 29.013333c-11.946667 17.066667-29.013333 58.026667-30.72 102.4-1.706667 44.373333-15.36 78.506667-18.773333 87.04-3.413333 8.533333 39.253333-6.826667 39.253333-6.826666s-3.413333 13.653333-11.946666 49.493333c-8.533333 35.84-30.72 102.4-35.84 117.76-5.12 15.36 42.666667-6.826667 42.666666-6.826667s-3.413333 22.186667-17.066666 64.853334c-11.946667 40.96-40.96 76.8-46.08 90.453333-5.12 13.653333 51.2 18.773333 51.2 18.773333s-68.266667 90.453333-34.133334 196.266667c40.96 124.586667 116.053333 157.013333 116.053334 157.013333H290.133333v68.266667h460.8v-68.266667h-112.64c59.733333-17.066667 97.28-98.986667 90.453334-155.306666-11.946667-92.16-58.026667-88.746667-58.026667-157.013334 0-68.266667 73.386667-174.08 90.453333-191.146666 15.36-15.36 13.653333-13.653333-6.826666-25.6zM732.16 129.706667c5.12 6.826667 3.413333 17.066667 1.706667 23.893333-3.413333 6.826667-18.773333-27.306667-18.773334-27.306667 6.826667-6.826667 10.24-1.706667 17.066667 3.413334z m-148.48-22.186667s11.946667-6.826667 29.013333-3.413333c18.773333 5.12 13.653333 11.946667 13.653334 11.946666s-6.826667 1.706667-20.48 3.413334c-13.653333 1.706667-29.013333-6.826667-29.013334-6.826667l6.826667-5.12zM411.306667 339.626667C370.346667 215.04 465.92 68.266667 465.92 68.266667s-44.373333 126.293333 3.413333 252.586666c39.253333 104.106667 122.88 211.626667 122.88 211.626667s-126.293333-32.426667-180.906666-192.853333zM588.8 836.266667s-3.413333-10.24-5.12-6.826667c-1.706667 3.413333-6.826667 3.413333-11.946667 6.826667-30.72 20.48-61.44-85.333333-15.36-109.226667 0 0 61.44-1.706667 75.093334 39.253333 11.946667 44.373333-42.666667 69.973333-42.666667 69.973334z m37.546667-317.44s-8.533333-64.853333-52.906667-124.586667C443.733333 221.866667 503.466667 97.28 503.466667 97.28s-1.706667 23.893333 3.413333 58.026667c5.12 34.133333 10.24 78.506667 54.613333 122.88 105.813333 109.226667 64.853333 240.64 64.853334 240.64z" p-id="28617" fill="#000000"></path></svg>