<?xml version="1.0" standalone="no"?><!DOCTYPE svg PUBLIC "-//W3C//DTD SVG 1.1//EN" "http://www.w3.org/Graphics/SVG/1.1/DTD/svg11.dtd"><svg t="1744882364681" class="icon" viewBox="0 0 1024 1024" version="1.1" xmlns="http://www.w3.org/2000/svg" p-id="8883" xmlns:xlink="http://www.w3.org/1999/xlink" width="200" height="200"><path d="M512 0C230.4 0 0 230.4 0 512s230.4 512 512 512 512-230.4 512-512S796.8 0 512 0z m236.8 739.2c-9.6 16-28.8 19.2-44.8 9.6-121.6-73.6-272-89.6-451.2-48-19.2 6.4-32-6.4-38.4-22.4-6.4-19.2 6.4-32 22.4-38.4 195.2-44.8 364.8-25.6 496 57.6 19.2 6.4 22.4 25.6 16 41.6z m60.8-140.8c-12.8 19.2-35.2 25.6-54.4 12.8-137.6-83.2-348.8-108.8-508.8-57.6-19.2 6.4-44.8-6.4-48-25.6-6.4-22.4 3.2-44.8 25.6-48 185.6-57.6 416-28.8 576 70.4 12.8 6.4 22.4 32 9.6 48z m3.2-144c-163.2-96-438.4-108.8-595.2-57.6-25.6 6.4-51.2-6.4-57.6-32-6.4-25.6 6.4-51.2 32-57.6 182.4-54.4 480-44.8 672 70.4 22.4 12.8 32 44.8 19.2 67.2-16 16-44.8 22.4-70.4 9.6z" fill="#000000" p-id="8884"></path></svg>