<?xml version="1.0" standalone="no"?><!DOCTYPE svg PUBLIC "-//W3C//DTD SVG 1.1//EN" "http://www.w3.org/Graphics/SVG/1.1/DTD/svg11.dtd"><svg t="1771023379263" class="icon" viewBox="0 0 1024 1024" version="1.1" xmlns="http://www.w3.org/2000/svg" p-id="5284" width="256" height="256" xmlns:xlink="http://www.w3.org/1999/xlink"><path d="M937.4 402.56666667c-84 0-165.7-27.3-232.9-77.8v352.3c0 179.9-138.6 325.6-309.6 325.6S85.3 856.96666667 85.3 677.06666667c0-179.9 138.6-325.6 309.6-325.6 17.1 0 33.7 1.5 49.9 4.3v186.6c-15.5-6.1-32-9.2-48.6-9.2-76.3 0-138.2 65-138.2 145.3 0 80.2 61.9 145.3 138.2 145.3 76.2 0 138.1-65.1 138.1-145.3V-21.33333333H707c0 134.5 103.7 243.5 231.6 243.5v180.3l-1.2 0.1" fill="#2c2c2c" p-id="5285"></path></svg>