<?xml version="1.0" standalone="no"?><!DOCTYPE svg PUBLIC "-//W3C//DTD SVG 1.1//EN" "http://www.w3.org/Graphics/SVG/1.1/DTD/svg11.dtd"><svg t="1744882799048" class="icon" viewBox="0 0 1024 1024" version="1.1" xmlns="http://www.w3.org/2000/svg" p-id="32270" xmlns:xlink="http://www.w3.org/1999/xlink" width="200" height="200"><path d="M635.3 449.4h-184c-6.7 0-12.4-5-13.2-11.6L421.4 304c-0.5-3.8 0.7-7.6 3.2-10.4 2.5-2.9 6.2-4.5 10-4.5h217.5c3.8 0 7.4 1.6 10 4.5s3.7 6.7 3.2 10.5l-16.8 133.8c-0.8 6.5-6.5 11.5-13.2 11.5zM463 422.8h160.5L637 315.6H449.7L463 422.8z" fill="#000000" p-id="32271"></path><path d="M635.3 582.4h-184c-6.7 0-12.4-5-13.2-11.7l-16.7-133.9c-0.5-3.8 0.7-7.6 3.2-10.4 2.5-2.9 6.2-4.5 10-4.5h217.5c3.8 0 7.4 1.6 10 4.5 2.5 2.9 3.7 6.7 3.2 10.5l-16.8 133.9c-0.8 6.6-6.5 11.6-13.2 11.6zM463 555.8h160.5L637 448.5H449.7L463 555.8z" fill="#000000" p-id="32272"></path><path d="M635.3 715.3h-184c-6.7 0-12.4-5-13.2-11.7l-16.7-133.8c-0.5-3.8 0.7-7.6 3.2-10.4 2.5-2.9 6.2-4.5 10-4.5h217.5c3.8 0 7.4 1.6 10 4.5 2.5 2.9 3.7 6.7 3.2 10.5l-16.8 133.8c-0.8 6.6-6.5 11.6-13.2 11.6zM463 688.7h160.5L637 581.5H449.7L463 688.7z" fill="#000000" p-id="32273"></path><path d="M635.3 848.3h-184c-6.7 0-12.4-5-13.2-11.7l-16.7-133.8c-0.5-3.8 0.7-7.6 3.2-10.4 2.5-2.9 6.2-4.5 10-4.5h217.5c3.8 0 7.4 1.6 10 4.5 2.5 2.9 3.7 6.7 3.2 10.5l-16.8 133.8c-0.8 6.6-6.5 11.6-13.2 11.6zM463 821.7h160.5L637 714.5H449.7L463 821.7z" fill="#000000" p-id="32274"></path><path d="M585.1 293.9h-83.6l-16.8-100.4h117.2z" fill="#000000" p-id="32275"></path><path d="M585.1 307.2h-83.6c-6.5 0-12-4.7-13.1-11.1l-16.8-100.4c-0.6-3.9 0.4-7.8 3-10.8s6.2-4.7 10.1-4.7h117.2c3.9 0 7.6 1.7 10.1 4.7s3.6 6.9 3 10.8l-16.8 100.4c-1.1 6.4-6.6 11.1-13.1 11.1z m-72.3-26.6h61.1l12.4-73.8h-85.8l12.3 73.8z" fill="#000000" p-id="32276"></path><path d="M543.3 206.8c-7.3 0-13.3-6-13.3-13.3V42.9c0-7.3 6-13.3 13.3-13.3s13.3 6 13.3 13.3v150.6c0 7.3-6 13.3-13.3 13.3z" fill="#000000" p-id="32277"></path><path d="M543.4 176.7c-14.7 0-26.6-11.9-26.6-26.6v-16.8c0-14.7 11.9-26.6 26.6-26.6s26.6 11.9 26.6 26.6v16.8c0 14.7-11.9 26.6-26.6 26.6zM401.1 1002.4c-1 0-1.9-0.1-2.9-0.3-7.2-1.6-11.7-8.7-10.1-15.9l33.5-150.5c1.4-6.1 6.7-10.4 13-10.4h217.5c6.2 0 11.6 4.3 13 10.4l33.4 150.5c1.6 7.2-2.9 14.3-10.1 15.9-7.2 1.6-14.3-2.9-15.9-10.1l-31.1-140.1H445.3L414.1 992c-1.4 6.2-6.9 10.4-13 10.4z" fill="#000000" p-id="32278"></path><path d="M543.8 836.2m-46.5 0a46.5 46.5 0 1 0 93 0 46.5 46.5 0 1 0-93 0Z" fill="#000000" p-id="32279"></path><path d="M543.8 896c-33 0-59.8-26.8-59.8-59.8s26.8-59.8 59.8-59.8 59.8 26.8 59.8 59.8-26.8 59.8-59.8 59.8z m0-93c-18.3 0-33.2 14.9-33.2 33.2s14.9 33.2 33.2 33.2 33.2-14.9 33.2-33.2-14.9-33.2-33.2-33.2z" fill="#000000" p-id="32280"></path><path d="M543.8 703.3m-26.6 0a26.6 26.6 0 1 0 53.2 0 26.6 26.6 0 1 0-53.2 0Z" fill="#000000" p-id="32281"></path><path d="M543.8 743.2c-22 0-39.9-17.9-39.9-39.9s17.9-39.9 39.9-39.9 39.9 17.9 39.9 39.9-17.9 39.9-39.9 39.9z m0-53.2c-7.3 0-13.3 6-13.3 13.3 0 7.3 6 13.3 13.3 13.3 7.3 0 13.3-6 13.3-13.3 0-7.3-6-13.3-13.3-13.3z" fill="#000000" p-id="32282"></path><path d="M543.8 570.3m-26.6 0a26.6 26.6 0 1 0 53.2 0 26.6 26.6 0 1 0-53.2 0Z" fill="#000000" p-id="32283"></path><path d="M543.8 610.2c-22 0-39.9-17.9-39.9-39.9s17.9-39.9 39.9-39.9 39.9 17.9 39.9 39.9-17.9 39.9-39.9 39.9z m0-53.2c-7.3 0-13.3 6-13.3 13.3 0 7.3 6 13.3 13.3 13.3 7.3 0 13.3-6 13.3-13.3 0-7.3-6-13.3-13.3-13.3z" fill="#000000" p-id="32284"></path><path d="M543.8 437.3m-26.6 0a26.6 26.6 0 1 0 53.2 0 26.6 26.6 0 1 0-53.2 0Z" fill="#000000" p-id="32285"></path><path d="M543.8 477.2c-22 0-39.9-17.9-39.9-39.9s17.9-39.9 39.9-39.9 39.9 17.9 39.9 39.9-17.9 39.9-39.9 39.9z m0-53.2c-7.3 0-13.3 6-13.3 13.3s6 13.3 13.3 13.3c7.3 0 13.3-6 13.3-13.3s-6-13.3-13.3-13.3z" fill="#000000" p-id="32286"></path><path d="M543.8 304.4m-26.6 0a26.6 26.6 0 1 0 53.2 0 26.6 26.6 0 1 0-53.2 0Z" fill="#000000" p-id="32287"></path><path d="M543.8 344.3c-22 0-39.9-17.9-39.9-39.9s17.9-39.9 39.9-39.9 39.9 17.9 39.9 39.9-17.9 39.9-39.9 39.9z m0-53.2c-7.3 0-13.3 6-13.3 13.3s6 13.3 13.3 13.3c7.3 0 13.3-6 13.3-13.3s-6-13.3-13.3-13.3z" fill="#000000" p-id="32288"></path><path d="M617 949.3H470.7c-7.3 0-13.3-6-13.3-13.3s6-13.3 13.3-13.3H617c7.3 0 13.3 6 13.3 13.3s-6 13.3-13.3 13.3zM617 1002.4H470.7c-7.3 0-13.3-6-13.3-13.3s6-13.3 13.3-13.3H617c7.3 0 13.3 6 13.3 13.3s-6 13.3-13.3 13.3z" fill="#000000" p-id="32289"></path><path d="M543.4 184.7m-26.7 0a26.7 26.7 0 1 0 53.4 0 26.7 26.7 0 1 0-53.4 0Z" fill="#000000" p-id="32290"></path><path d="M543.4 224.7c-22.1 0-40-17.9-40-40s17.9-40 40-40 40 17.9 40 40-17.9 40-40 40z m0-53.4c-7.4 0-13.4 6-13.4 13.4s6 13.4 13.4 13.4 13.4-6 13.4-13.4-6-13.4-13.4-13.4z" fill="#000000" p-id="32291"></path></svg>