<?xml version="1.0" standalone="no"?><!DOCTYPE svg PUBLIC "-//W3C//DTD SVG 1.1//EN" "http://www.w3.org/Graphics/SVG/1.1/DTD/svg11.dtd"><svg t="1744883225336" class="icon" viewBox="0 0 1448 1024" version="1.1" xmlns="http://www.w3.org/2000/svg" p-id="44991" xmlns:xlink="http://www.w3.org/1999/xlink" width="282.8125" height="200"><path d="M608.929951 405.265244h-129.182597l62.957165-119.205778 66.225432 119.205778z m-115.765496-8.084663h102.176382l-52.464304-94.263732-49.712078 94.263732z" fill="#000000" p-id="44992"></path><path d="M615.98253 428.487149h-141.051571l20.469679-29.586427 6.708551 4.644381-11.868974 16.857383h110.777087l-11.180917-17.029397 6.70855-4.300353z" fill="#000000" p-id="44993"></path><path d="M622.175038 448.784814h-153.436587v-28.382328h153.436587v28.382328z m-145.179909-7.912649h137.26726v-12.385016h-137.26726v12.385016zM622.175038 579.343524h-153.436587v-24.081975h153.436587v24.081975z m-145.179909-8.084663h137.26726v-8.084663h-137.26726v8.084663z" fill="#000000" p-id="44994"></path><path d="M614.090375 675.327398h-137.095246v-102.004368H614.090375v102.004368z m-129.010583-8.084663h120.925919v-86.007056H485.079792v86.007056z" fill="#000000" p-id="44995"></path><path d="M622.175038 691.496724h-153.436587v-24.081975h153.436587v24.081975z m-145.179909-8.084663h137.26726v-8.084663h-137.26726v8.084663z" fill="#000000" p-id="44996"></path><path d="M614.090375 787.308584h-137.095246v-102.004368H614.090375v102.004368z m-129.010583-7.912649h120.925919v-86.007055H485.079792v86.007055zM613.402318 563.174198h-136.407189v-122.474047h136.407189v122.474047z m-128.322526-7.912649h120.409877V448.956828h-120.409877v106.304721zM496.260709 577.279355h8.084663v90.995464h-8.084663zM517.934487 577.279355h8.084663v90.995464h-8.084663zM539.264237 577.279355h8.084663v90.995464h-8.084663zM563.346212 577.279355h8.084663v90.995464h-8.084663zM586.396103 577.279355h8.084663v90.995464h-8.084663z" fill="#000000" p-id="44997"></path><path d="M496.260709 690.808668h8.084663v90.995464h-8.084663zM517.934487 690.808668h8.084663v90.995464h-8.084663zM539.264237 690.808668h8.084663v90.995464h-8.084663zM563.346212 690.808668h8.084663v90.995464h-8.084663zM586.396103 690.808668h8.084663v90.995464h-8.084663zM868.32723 537.372081H606.005711v-39.219217h262.321519v39.219217zM614.090375 529.287418h246.324206v-23.221905H614.090375v23.221905zM610.13405 656.749874h252.000672v8.084663H610.13405zM260.601377 656.749874h217.253822v8.084663H260.601377zM610.13405 683.412061h252.000672v8.084663H610.13405zM260.601377 683.412061h222.930288v8.084663H260.601377z" fill="#000000" p-id="44998"></path><path d="M622.175038 800.55367h-153.436587v-21.157735h153.436587v21.157735z m-145.179909-8.084663h137.26726v-5.160423h-137.26726v5.160423zM995.101629 405.265244h-129.182597l66.225433-119.205778 62.957164 119.205778z m-115.421468-8.084663h102.176382l-49.712078-94.263732-52.464304 94.263732z" fill="#000000" p-id="44999"></path><path d="M999.918025 428.487149h-140.879557l19.26558-29.414413 6.708551 4.300353-11.180917 17.029397h110.777087l-11.69696-16.857383 6.536536-4.644381z" fill="#000000" p-id="45000"></path><path d="M1006.110533 448.784814h-153.436587v-28.382328h153.436587v28.382328z m-145.351924-7.912649h137.26726v-12.385016h-137.26726v12.385016zM1006.110533 579.343524h-153.436587v-24.081975h153.436587v24.081975z m-145.351924-8.084663h137.26726v-8.084663h-137.26726v8.084663z" fill="#000000" p-id="45001"></path><path d="M997.853855 675.327398h-137.095246v-102.004368h137.095246v102.004368z m-129.010583-8.084663h120.92592v-86.007056h-120.92592v86.007056z" fill="#000000" p-id="45002"></path><path d="M1006.110533 691.496724h-153.436587v-24.081975h153.436587v24.081975z m-145.351924-8.084663h137.26726v-8.084663h-137.26726v8.084663z" fill="#000000" p-id="45003"></path><path d="M997.853855 787.308584h-137.095246v-102.004368h137.095246v102.004368z m-129.010583-7.912649h120.92592v-86.007055h-120.92592v86.007055zM997.853855 563.174198h-136.407189v-122.474047h136.407189v122.474047z m-128.322526-7.912649h120.409877V448.956828h-120.409877v106.304721zM970.675626 577.279355h8.084663v90.995464h-8.084663zM949.001848 577.279355h8.084663v90.995464h-8.084663zM927.672098 577.279355h8.084663v90.995464h-8.084663zM903.590123 577.279355h8.084663v90.995464h-8.084663zM880.540232 577.279355h8.084663v90.995464h-8.084663z" fill="#000000" p-id="45004"></path><path d="M970.675626 690.808668h8.084663v90.995464h-8.084663zM949.001848 690.808668h8.084663v90.995464h-8.084663zM927.672098 690.808668h8.084663v90.995464h-8.084663zM903.590123 690.808668h8.084663v90.995464h-8.084663zM880.540232 690.808668h8.084663v90.995464h-8.084663z" fill="#000000" p-id="45005"></path><path d="M1006.110533 800.55367h-153.436587v-21.157735h153.436587v21.157735z m-145.351924-8.084663h137.26726v-5.160423h-137.26726v5.160423z" fill="#000000" p-id="45006"></path><path d="M522.062825 545.28473h-30.618511v-87.03914h30.618511V545.28473z m-22.533848-8.084663h14.449185V466.15824h-14.449185v71.041827z" fill="#000000" p-id="45007"></path><path d="M559.90593 545.28473h-30.618512v-87.03914h30.618512V545.28473z m-22.533849-8.084663h14.449186V466.15824h-14.449186v71.041827z" fill="#000000" p-id="45008"></path><path d="M598.437091 545.628759h-30.618512v-87.03914h30.618512v87.03914z m-22.705863-8.084664h14.449185v-71.041827h-14.449185v71.041827z" fill="#000000" p-id="45009"></path><path d="M906.858391 545.28473h-30.618512v-87.03914h30.618512V545.28473z m-22.533849-8.084663h14.449186V466.15824h-14.449186v71.041827z" fill="#000000" p-id="45010"></path><path d="M944.701495 545.28473h-30.618512v-87.03914h30.618512V545.28473z m-22.533848-8.084663h14.449185V466.15824h-14.449185v71.041827z" fill="#000000" p-id="45011"></path><path d="M983.060642 545.628759h-30.618512v-87.03914h30.618512v87.03914z m-22.533849-8.084664h14.449185v-71.041827h-14.449185v71.041827z" fill="#000000" p-id="45012"></path><path d="M258.709222 613.746346l-1.032084-7.912649c78.954477-9.976818 134.515034-46.44381 167.197715-75.170166 35.434907-31.306568 52.464304-60.720981 52.636318-60.892995l7.052578 3.956324c-0.688056 1.204099-17.717453 30.618512-54.184444 62.785151-33.542752 29.586427-90.479422 67.085503-171.670083 77.234335z" fill="#000000" p-id="45013"></path><path d="M424.874853 533.587771h8.084663v125.398286H424.874853z" fill="#000000" p-id="45014"></path><path d="M337.147657 589.836385h8.084663v69.149672H337.147657z" fill="#000000" p-id="45015"></path><path d="M997.509827 656.749874h217.253822v8.084663H997.509827z" fill="#000000" p-id="45016"></path><path d="M991.833361 683.412061h222.930288v8.084663H991.833361z" fill="#000000" p-id="45017"></path><path d="M1216.48379 613.746346c-81.19066-10.148833-138.127331-47.647909-171.670083-77.406349-36.466991-32.166639-53.324374-61.581052-54.184444-62.785151l7.052578-3.956324c0.172014 0.344028 17.201411 29.586427 52.636318 60.892995 32.682681 28.898371 88.243239 65.193348 167.197715 75.170166l-1.032084 8.084663z" fill="#000000" p-id="45018"></path><path d="M1042.40551 533.587771h8.084663v125.398286H1042.40551z" fill="#000000" p-id="45019"></path><path d="M1130.132706 589.836385h8.084663v69.149672H1130.132706z" fill="#000000" p-id="45020"></path></svg>