<?xml version="1.0" standalone="no"?><!DOCTYPE svg PUBLIC "-//W3C//DTD SVG 1.1//EN" "http://www.w3.org/Graphics/SVG/1.1/DTD/svg11.dtd"><svg t="1744882663105" class="icon" viewBox="0 0 1200 1024" version="1.1" xmlns="http://www.w3.org/2000/svg" p-id="27424" xmlns:xlink="http://www.w3.org/1999/xlink" width="234.375" height="200"><path d="M702.282005 803.508634a7.135863 7.135863 0 0 0 3.396269 0.873188c2.468406 0 4.889373-1.315411 6.17021-3.628637l44.877543-81.304616c1.916029-3.425214 0.683435-7.718793-2.707205-9.605877-3.395465-1.891104-7.689043-0.644841-9.569695 2.7458L699.523341 793.909993c-1.873415 3.394661-0.651273 7.687435 2.758664 9.598641z m0 0M792.624042 648.266023c1.139326 0.640821 2.342975 0.964849 3.540996 0.964849a7.073952 7.073952 0 0 0 6.092218-3.500794l8.739925-15.024308c1.997238-3.352047 0.82977-7.684219-2.516648-9.651708a7.072344 7.072344 0 0 0-9.682261 2.541574l-8.721432 15.025916c-1.933718 3.352851-0.819318 7.683415 2.547202 9.644471z m0 0" fill="#000000" p-id="27425"></path><path d="M534.169916 771.386395a6.838368 6.838368 0 0 0-3.92774-0.635192c-0.455087-1.124853-1.071787-2.976559-1.68929-5.902464-2.662983-13.417835 5.525369-70.915604 14.945513-120.756492 6.674344-35.442123 18.577365-157.453723 21.212207-185.119967 11.480096 1.171488 22.670737 2.554438 32.644061 4.242924 11.922319 5.257624 28.754915 17.403465 36.465667 45.24097 12.594497 45.624497 17.137328 72.307399 23.812476 78.269362 6.646202 5.957139 33.60489 22.463295 35.699416 27.018187 2.112215 4.559716 5.603361 3.861004 5.603361 3.861004l24.49591-45.628518 8.769675 4.917515 2.440264-15.807445 83.356529 39.667359 12.606557 8.435997-11.555676 10.869829 3.833667 5.961159-17.131699 31.936505 12.606557 18.592642s0.691475 7.736482-2.080858 11.228431c-2.814947 3.521699-8.769674 12.287353-8.769674 12.287353S784.048946 748.143985 778.09261 752.37324c-5.932214 4.201114-15.399796 10.874653-22.792147 10.17755l-7.340894-0.705144s-1.042841 50.175369-5.620246 62.466742c-4.516298 12.292177-9.420143 51.940239-19.59126 56.858557-10.148604 4.918318-13.659851 4.554892-15.755986 4.918318-2.094527 0.353778-8.05649 1.042841-8.05649 1.042841s-0.208247 0.451871-0.631172 1.203649L672.934512 661.701547a7.03375 7.03375 0 0 0-7.769447-6.23373c-3.865829 0.437398-6.654243 3.938192-6.203176 7.815278l26.818785 239.899274c-0.277394 0.160004-0.558004 0.324028-0.844243 0.436594l8.02674 84.458065c-51.80918 21.183262-108.055862 33.605694-166.937385 35.525744l12.141821-245.506655c0.145531-2.852737-1.431193-5.471498-3.997691-6.709722zM334.418817 229.281914c17.946997 1.101536 52.4299 2.585796 68.708512 3.266014 3.313453-5.675725 7.504114-10.924504 12.422432-15.571056-11.94242-13.402558-51.537414-61.112737-52.318942-62.189349-0.809669-1.038821-0.392372-2.638862 1.10636-1.271992-2.013318-1.817936 55.810892 41.560071 68.950528 50.854783 9.400042-4.909474 20.105043-8.202021 31.524032-9.438636 0.55318-18.295951 0.55318-78.905359 0.55318-76.572032 0-1.959448 1.333904-1.630595 1.75683-0.165632 0.386744 1.470591 14.488817 65.977989 15.997198 76.508512a90.515709 90.515709 0 0 1 23.859914 5.375014c17.671211-12.523741 66.137993-48.903376 65.493152-48.335724 1.522853-1.363653 1.910401 0.213875 1.327471 0.834595-0.644841 0.616699-32.677831 39.535496-48.011694 57.348218a75.355518 75.355518 0 0 1 14.669726 13.479746c11.189837-1.645068 89.70604-15.352357 85.9375-14.53706 2.926709-0.655293 2.1291 1.091084 0.780724 1.804268-1.314607 0.718813-59.982256 26.051729-75.528387 32.019321 1.431193 3.846532 2.43544 7.86754 3.056964 11.966541 18.480076 2.851933 80.562487 10.568314 82.964157 10.839275 1.027564 0.11739 1.498732 1.707783 0.131059 1.906381-1.363653 0.195382-65.362094 7.38592-81.732367 8.465747-4.84113-10.745203-11.660201-21.619856-21.081149-29.234928-26.265604-21.197735-49.232229-20.417011-64.420561-19.898404-31.087438 1.075807-54.218891 14.585302-68.736653 40.129682-2.774745 4.918318-5.132193 10.142976-7.145512 15.05647-9.162046-0.828966-22.612042-2.193424-35.588459-3.57959 1.174704 5.287373 2.7458 11.261397 4.040306 13.231297 2.114628 3.137368 7.019277 2.101763 6.286796 8.776106-0.698712 6.675148-2.740171 27.01095 1.091887 31.924445 1.784167 2.311618 5.180436 4.70766 8.443234 6.995156-7.338481 27.624433-37.644391 132.086232-90.971601 192.631316a48.329291 48.329291 0 0 1-0.845047-5.551902c-1.061334-11.215567 4.919122-29.827506 4.919123-29.827506s-30.470738-14.751739-29.414229-24.908383c0.534687-5.493207 3.85216-13.424267 7.116566-19.93941 11.771963-1.591197 27.173367-5.403959 38.445216-14.424494 19.912073-15.944131 47.589573-66.051961 51.703047-82.03951 0.988166-3.778188-1.286465-7.621504-5.083951-8.600826-3.740398-0.968869-7.576477 1.305762-8.546151 5.089579-3.590847 13.863273-30.243195 61.186709-46.876389 74.520923-8.251872 6.605196-19.979613 9.713618-29.598354 11.164913-6.315741-1.526874-15.477787-3.285311-19.407135-5.796331-6.679972-4.19629-15.415072-44.209385-15.084611-52.644579 0.352974-8.410268 15.389343-52.636538 19.992477-58.942631 1.606474-2.264983 4.477704-7.229936 7.51939-12.646759l7.081993 39.362626c1.804268 10.821587 6.13644 29.691623 14.648821 34.243299 1.561447 0.845047 3.23144 1.272797 4.90867 1.272796 1.411092 0 2.823792-0.290259 4.171364-0.892485 22.075747-9.816535 52.934033-84.177455 64.24126-113.089962a6124.139997 6124.139997 0 0 0 36.767183-5.540646c0.034574-3.767736 0.455087-7.46552 1.16988-11.084508-15.037173-4.345841-44.49884-13.487786-60.976855-18.600682 0.688259 5.860654 1.188372 10.040863 1.333904 11.16652 0.358602 2.457149 5.526173 7.98895 10.690528 13.445172-15.628143 40.88146-41.971739 98.030276-56.557042 109.327855-2.206288-4.131966-5.020431-13.67352-6.533636-22.690839l-10.201671-56.791821c0.407649-0.73811 0.619916-1.172292 0.619916-1.172292l-7.337678-46.677791s56.194419-77.065713 58.473875-71.58939c-0.001608-0.002412 6.720978 40.761658 9.092899 61.24058z" fill="#000000" p-id="27426"></path><path d="M441.213942 383.156851c8.721432 4.278302 20.449976 7.504114 33.784191 7.504113 19.184416 0 38.51356-9.522256 44.523766-16.108959 8.513185-9.282652 19.489952-59.481338 12.801135-76.25122-4.812185-12.076694-15.755182-19.129741-26.509229-25.295127-19.091147-10.938173-24.708177-14.765407-26.022784-16.055893a7.342502 7.342502 0 0 0-5.539842-2.531925c-2.094527 0-4.0789 0.912586-5.407979 2.406495-0.500113 0.488857-4.060407 3.545016-26.149822 16.181323-10.782993 6.16619-21.668098 13.218433-26.542195 25.295127-6.189507 15.581509 2.862386 59.934817 10.981591 73.642107v41.851133c0 1.419132 0.422121 2.822184 1.202845 3.992063 0.775899 1.091084 18.853955 27.05276 59.317314 33.355638 3.002289 0.466344 6.199155 0.912586 9.580148 1.321843-14.421278 7.322401-34.400086 18.906218-57.465608 36.32898-34.177367 25.815341-80.581784 68.975453-124.125423 136.089552-4.550068-9.769097-12.379818-25.621568-17.996044-32.205054-8.382126-9.811711-13.64377-10.873045-13.300445-19.644328 0.208247-5.616226 3.472653-16.002022 5.762561-22.725412 62.906553-63.368072 95.638254-182.543016 102.492703-209.247626 3.438079-15.799404 8.866159-36.117518 10.61736-43.572585 2.245686-6.611628 7.736482-19.145018 12.005135-26.68049 12.068654-21.311908 29.579057-29.037937 55.830993-29.936051 14.648821-0.51941 32.905374-1.144954 55.11218 16.768273 13.752316 11.089332 20.997528 32.12063 24.37852 45.421075 3.555469 25.152008 9.464366 69.881607 9.709598 70.629366 0.344934 1.058118 0 6.660675-4.903845 10.528916-4.903041 3.864221 14.959181 49.556257 14.959181 49.556257s7.488837 2.022967 9.99262 7.34411c1.323451 2.891331 1.149778 4.994702 1.247068 5.534213-14.309516-1.780951-29.738257-3.142192-44.978853-4.477704-17.539348-1.546975-34.105003-2.99264-46.759803-4.967364-29.122362-4.544439-44.358133-20.623649-48.602665-25.793633V383.157655h0.005628z" fill="#000000" p-id="27427"></path><path d="M439.395202 365.045025c-4.690775-5.765777-14.697868-49.995264-10.152625-61.48742 3.182394-7.900506 11.472056-13.166974 20.470078-18.27987 13.479746-7.750954 20.595508-12.176396 24.523248-14.877169 4.192269 2.914648 11.468035 7.357778 24.593199 14.877169 8.949779 5.112896 17.248286 10.379364 20.401734 18.27987 4.612783 11.492157-5.392702 55.720839-10.103578 61.454454-3.118875 3.451748-18.554048 11.524318-34.129125 11.524319-18.970541-0.000804-32.207467-7.766231-35.602931-11.491353zM279.097586 777.965058c-3.865025-27.347843 2.116236-42.098778 3.478281-44.897644 0.878013-1.726276 14.552336-39.07076 24.979943-67.606976 47.560628-84.235346 101.776302-135.904623 140.095284-164.948189 42.015158-31.84404 73.918697-43.753494 77.866538-45.157349 3.230636 0.295083 6.514339 0.584538 9.826988 0.882033 4.380415 0.392372 8.881436 0.779116 13.384065 1.189176-7.896486 18.216351-29.142463 61.515562-67.215408 99.653635-14.439771 14.47354-28.487973 25.577345-42.069029 36.350689-31.3785 24.839236-63.828788 50.528343-101.252067 117.824959-13.513516 24.315001-28.132587 59.525561-38.216869 88.795062-8.891084-1.99563-18.845111-7.51537-20.877726-22.085396z" fill="#000000" p-id="27428"></path><path d="M444.385884 1019.44588c27.5183-27.498199 52.309293-65.244704 53.516963-67.10847 2.129904-3.253954 1.218122-7.619896-2.026987-9.7498-3.249933-2.133121-7.6207-1.236615-9.7498 2.038243-0.334481 0.489661-30.053441 45.813447-59.302842 72.098349-34.059977-5.912917-66.900224-15.366026-98.146861-28.006353 58.493976-190.593877 80.684701-239.875957 113.270067-312.119837a10522.06527 10522.06527 0 0 0 14.571633-32.378727c1.57592-3.565921-0.03377-7.751758-3.589238-9.313206-3.540996-1.591197-7.697888 0-9.293909 3.565922-5.131389 11.543615-9.924277 22.152131-14.488818 32.314404-32.760647 72.57032-55.07841 122.016424-113.518515 312.449493-0.232368-0.102113-0.460715-0.213071-0.687455-0.315988-6.897867-28.26847-14.470324-51.220622-14.470324-51.220622s-10.161469-35.434083-5.277725-51.92657c4.90867-16.506156 19.606538-78.972094 19.606538-78.972094s-0.061911 0.019297-0.1592 0.019297c9.793218-27.739411 23.451461-60.375432 35.873893-82.692392 36.011384-64.82419 65.977989-88.52812 97.671673-113.624649 13.901867-11.005712 28.258822-22.371634 43.26705-37.440969 25.533123-25.573325 43.838722-53.393945 55.859134-75.090988-4.759118 47.413488-12.785859 123.533649-17.671212 149.513015-1.998042 10.515247-19.38221 103.6264-14.881189 126.124269 1.155407 5.761757 3.327925 13.52236 9.017319 16.685457l-11.8789 239.662082c-0.635192 0.004824-1.260736 0.049046-1.891908 0.049046-22.268717 0.004824-44.145062-1.638635-65.619387-4.558912zM222.419939 158.798883h118.998054v22.513146h-118.998054z" fill="#000000" p-id="27429"></path><path d="M267.446229 243.490925s-19.296982-89.516286-27.873686-96.48491-16.617113-17.153409-5.360541-29.481768 45.561782-41.810127 38.057669-75.04355c0 0 28.409177 0.536295 30.553554 59.499028 0 0 12.699022 10.68892 13.936441-9.112196 0 0 35.3778 36.985882-1.071786 52.530405l14.472736 66.467649-62.714387 31.625342z" fill="#000000" p-id="27430"></path></svg>