<?xml version="1.0" standalone="no"?><!DOCTYPE svg PUBLIC "-//W3C//DTD SVG 1.1//EN" "http://www.w3.org/Graphics/SVG/1.1/DTD/svg11.dtd"><svg t="1771023436806" class="icon" viewBox="0 0 1821 1024" version="1.1" xmlns="http://www.w3.org/2000/svg" p-id="6977" xmlns:xlink="http://www.w3.org/1999/xlink" width="455.25" height="256"><path d="M280.6430553 826.25736386l32.83019479-16.85874433 3.54920757-23.06986571 3.54920752-11.53492961 24.8444729-1.77460708 9.76032255-5.32381462 19.52065807 3.54920762 23.06985929 1.774607 5.32381465-7.985722-9.76032265-15.08414356 1.77460057-15.08413726 5.32381471-19.52065822 11.5349361 5.32381472 11.53492959 5.32381467 23.06986564-13.30953661 24.84446629-11.53492965-10.64762937-15.08414367 5.32381473-15.08413726-3.54920764-13.30953668 19.52065164-5.32381462 21.29525865-7.98572199h16.8587442l5.32381471-15.0841437 26.61907323-7.98572192 19.52065811-21.29525867-1.77460708-13.30953671 16.85874438-7.98572207-9.76032264-19.52065158-5.32381466-32.83019473 5.32381466-26.61907329 11.53492958-5.3238146 9.76032905-21.29525863h21.29525863v-23.0698593l24.84446646-7.98572204 19.52065155-23.06986562 3.54921405-31.0555877 5.32381474-21.29525859 21.29525859-11.53492974-11.53493614-15.08414373v-16.85874421l-15.08413719-15.08414373 16.85874434-23.06985919 21.29525857-19.52065804-3.54920754-24.84446631 5.32381453-19.52065156 13.30953675-9.76032912h24.8444663l24.84446619 5.32381477 7.98572202 1.77460704 15.08414365 5.3238146 15.08414377 1.77460057 11.53492957 24.84447267 9.7603291 7.98572205 13.30953663-7.98572205 16.8587443 1.77460058-11.53492954-16.85874427 1.77460043-24.84446618 5.32381473-7.98572203-16.85874427-5.32381465-9.76032909-9.76032906 9.76032909-7.98572194h23.06986575l16.85874414-23.06986574 21.29525868-3.54920758 7.98572208 9.76032901 5.32381457 9.7603226 24.84446627 1.77460701 15.08414366 7.98572198 21.29525863-5.32381466 34.60479541-7.98572193 21.29525866 1.77460691 7.98572206 15.08413739 15.08414359-7.985722 24.84446637 3.54921402 19.52065153-5.32381473 16.85875078-19.52065802 24.84446618 11.53493615 16.85874438 9.76032258-5.32381469 21.29525864-19.52065159 16.8587508-7.985722 7.98572188-15.08414378 13.30953668-13.30953656 19.52065161-5.32381474 15.08414373-15.08413723 9.76032251 9.76032257 19.52065803 13.30953668 11.5349297 13.30953668 3.54920764 39.92860997-11.53492965 24.84447279-7.98572199h13.30953659l15.08413716-13.30953666 19.52065816-1.77460707 24.84446626-5.32381472 21.2952586-7.98572189 23.06986578-5.3238146 9.76032245 21.29525857 21.29525866 3.54921421 15.08414382 7.98572189 9.760329-5.32381468-7.98572198-15.08414368-3.54921409-19.52065165 26.61907319-23.06986571h15.08414367l21.29525884 11.53492964 23.06986567 3.54921403 31.05558116-7.98572191-9.76032247 13.30953659 24.84446626 7.98572205 5.32381458 16.85874427 19.52065162-7.98572208 21.29525858-3.54920757 5.32381477 11.53492965 1.774607 16.85874432 23.06986563 16.85875073 1.77460065 15.08413722 16.85875071 16.85875066-9.76032898 11.53492961 9.76032898 34.60479533 7.98572205 21.2952586 13.30953665 19.52065164h-23.06986574l1.77460704 19.52065812-16.85875071-11.53493611-1.77460065 24.84447272-13.30953654 19.52065161-16.85875086 1.77460713-16.85874417-5.3238146-15.08414377-7.98572205 5.32381469 16.85874423 1.77460703 26.61907326-13.30953667 15.08414379 11.53492964 15.08413712-38.15400292 21.29525874-7.98572205-16.85874431-19.52065151 13.30953672-1.77460709 23.06986558-21.29525858-5.32381457-39.92861003 1.77460061-26.6190734-7.98572215h-19.52065154l-1.77460702 24.84447287-13.30953671 11.53492966-9.76032891-7.98572208-28.39367396-15.08414371 16.85874431-9.76032253-26.6190734-1.77460701-9.760329 21.2952586-16.85874424-1.77460707-11.53492964 9.76032909-13.30953666 9.76032905 19.52065165 19.52065156-16.85874428-1.77460702-24.84447279-7.98572199 3.54921415-24.84446623h-16.85875084l-26.61907326 13.30953661-11.53492963 13.30953662 24.8444663 9.76032908-28.39367395 1.77460059-28.39368041 3.54921405-26.61907325 5.3238147-36.37940233-1.77460705-26.61907333-15.08414368-5.32381461-19.52065158-24.84446639-3.54920767v-15.08414371l-9.76032892-21.29525862-15.08413724-9.76032901 1.7746006 34.60479521 21.29525857 21.29525866 19.52065812 16.85875069-36.37940235-16.85875069-15.08414374-1.77460052c4.43651438 4.43651438 8.87302224 9.76032906 13.30953662 13.30953661 1.77460707 0.88730027 5.32381465 1.77460707 5.32381472 1.77460063l24.84447266 26.61907327-5.32381459 21.29525867H957.65482425l19.52065156 21.29525862-16.85874421 13.30953668-24.84447283-15.08413729-13.30953663-23.06986562-5.32381468 34.60479527 24.84447273 21.2952586-24.84447273-1.77460695-23.06985911-28.39367397-1.77460716-19.52065795-15.0841437 44.36512429-1.7746005 26.61907332 3.54920756 16.85874424h-23.06986562l-9.76032255-11.53492962-11.53493614-3.54920767-28.39367389 13.30953675-3.54921405 26.61907329-23.06985927-7.98572198-11.53493605-19.52065816-23.06985914-11.53492956 19.52065149 32.83018824-24.84446621 3.54921409-13.3095367-7.98572194-15.08414367-5.32381462-19.52065167-7.98572209-13.3095366 9.76032255 7.98572195 15.08414368-5.32381463 5.32381483-15.0841437-3.54920773-11.53492954-13.30953662-9.76032902 3.54920757 7.98572183 19.52065166-15.08414356 11.53493612-1.77460061 16.85874418-16.85875078-9.76032891-21.29525872-3.54920764-5.32381463-7.98572208-19.5206516 11.53492972 13.30953661 13.30953659-24.84446618 5.32381467-15.08414369-9.76032254-11.53492961 5.32381467-15.08414381-13.30953671-15.08414366 1.77460053v28.39368045l-24.84446629-7.98572203-16.85874424 7.98572203h-23.06986568l-9.76032904 21.2952586-26.61907324-5.32381466 5.32381465 28.39368028 26.61907325 15.08413731-23.06985917 5.32381468-21.2952586-7.98572199-5.32381472-16.8587443-16.85875086 7.98572204-13.30953656 11.53492957 7.98572196 28.39368035 19.52065802 9.76032904h13.3095367l-9.76032899 15.08413724 5.32381461 16.85875067 21.29525869 1.77460055-3.54920765 15.08414376 21.29525865 19.52065159-31.05558761 5.32381465-15.08414378 11.53493615h-28.39367396l-16.85875072-3.54921409h-26.61907321l-1.77460064-24.8444663 21.29525868 11.53492959-1.77460708-13.30953664-19.52065161-7.98572196-13.30953659-15.0841373-9.76032897-15.08414366 15.08414363-5.32381465-15.08414363-11.5349296-15.08414388-15.08414373 5.32381473-13.30953657v-13.30953674l7.98572191-16.8587443 13.30953674-15.08414364-7.98572201-24.84446621 24.84447272 7.98572196-13.30953658-26.61907327-22.18256546-9.76032909z" p-id="6978" fill="#2c2c2c"></path></svg>